<svg xmlns="http://www.w3.org/2000/svg" xmlns:xlink="http://www.w3.org/1999/xlink" viewBox="0 0 384.65 388.31"><defs><style>.cls-1{fill:none;}.cls-2{clip-path:url(#clip-path);}.cls-3{fill:#3a3837;}.cls-4{fill:#585553;}.cls-5{fill:#d6dbe2;}.cls-6{fill:#ba8335;}.cls-7{fill:#d09a3f;}.cls-8,.cls-9{fill:#fff;}.cls-8{opacity:0.65;}</style><clipPath id="clip-path" transform="translate(-126.6 26.26)"><rect class="cls-1" width="625" height="310"/></clipPath></defs><g id="Layer_2" data-name="Layer 2"><g id="Layer_1-2" data-name="Layer 1"><g class="cls-2"><polygon class="cls-3" points="161.87 298.58 153.57 373.07 249.93 373.07 237.38 298.58 161.87 298.58"/><path class="cls-3" d="M126.6,88.79V259.4a25.88,25.88,0,0,0,25.21,25.87c62.31,1.61,280.25,5.5,339.57,4.63a19.05,19.05,0,0,0,18.75-18.5c1.14-39.64,3-134.94-3.88-179.19a19.59,19.59,0,0,0-18.73-16.59C435.31,74,204.28,68.65,145,70A18.81,18.81,0,0,0,126.6,88.79Z" transform="translate(-126.6 26.26)"/><path class="cls-4" d="M137.3,88V250.05a15,15,0,0,0,14.77,15l330.78,4.09a14.6,14.6,0,0,0,14.81-14.54L498.21,94A10.67,10.67,0,0,0,487.8,83.24L149.15,76.4A11.56,11.56,0,0,0,137.3,88Z" transform="translate(-126.6 26.26)"/><path class="cls-5" d="M500.15,275.82h0l-362.85-6.18a.52.52,0,0,1-.5-.52.51.51,0,0,1,.51-.5h0l362.85,6.18a.51.51,0,0,1,0,1Z" transform="translate(-126.6 26.26)"/><path class="cls-3" d="M397.28,362.05h-141c-3.83,0-6.71-2.72-6-5.65l1.81-7.16c.54-2.15,2.91-3.73,5.72-3.82l136-4.24c2.93-.1,5.54,1.46,6.18,3.7l3.26,11.4C404.07,359.24,401.17,362.05,397.28,362.05Z" transform="translate(-126.6 26.26)"/><path class="cls-5" d="M332.17,347.41a.52.52,0,0,1-.51-.51.5.5,0,0,1,.5-.51l5.83-.09a.51.51,0,0,1,.51.51.5.5,0,0,1-.5.51l-5.82.09Z" transform="translate(-126.6 26.26)"/><path class="cls-5" d="M255.5,358.16h-.08a.5.5,0,0,1-.42-.58l.83-5.21a5.85,5.85,0,0,1,5.71-4.94l61.79-.9a.53.53,0,0,1,.52.5.5.5,0,0,1-.5.51l-61.8.91a4.84,4.84,0,0,0-4.72,4.08l-.83,5.21A.51.51,0,0,1,255.5,358.16Z" transform="translate(-126.6 26.26)"/><path class="cls-5" d="M257.18,145.84a6.81,6.81,0,1,0,.65-13.61,6.8,6.8,0,0,0-5.36,11.38A6.75,6.75,0,0,0,257.18,145.84Z" transform="translate(-126.6 26.26)"/><path class="cls-5" d="M294.71,135.83,293,127.54a.6.6,0,0,0-.49-.46l-7-.93A30.81,30.81,0,0,0,280,117.9l1.77-6.81a.59.59,0,0,0-.24-.63l-7-4.68a.59.59,0,0,0-.67,0l-5.6,4.28a30.79,30.79,0,0,0-9.76-1.92l-3.57-6.07a.57.57,0,0,0-.61-.27L246,103.5a.58.58,0,0,0-.46.49l-.93,7a30.81,30.81,0,0,0-8.25,5.55l-6.82-1.77a.6.6,0,0,0-.63.24l-4.67,7a.57.57,0,0,0,0,.67l4.28,5.6a30.5,30.5,0,0,0-1.91,9.76l-6.07,3.57a.56.56,0,0,0-.28.61l1.68,8.28a.57.57,0,0,0,.49.46l7,.93a30.58,30.58,0,0,0,5.55,8.25L233.23,167a.57.57,0,0,0,.24.63l7,4.67a.57.57,0,0,0,.67,0l5.6-4.28a30.44,30.44,0,0,0,9.75,1.91L260.1,176a.57.57,0,0,0,.61.28l8.29-1.68a.59.59,0,0,0,.46-.49l.93-7a30.58,30.58,0,0,0,8.25-5.55l6.81,1.77a.56.56,0,0,0,.63-.24l4.68-7a.59.59,0,0,0,0-.67l-4.28-5.6a30.72,30.72,0,0,0,1.92-9.75l6.07-3.57A.57.57,0,0,0,294.71,135.83Zm-19.53,14.72a21.07,21.07,0,0,1-24.59,8.22l.46-1.3a19.71,19.71,0,1,0-12.74-14.68q.12.6.27,1.17.28,1,.66,2l0,0,.11.27c.06.16.13.32.2.48l-1.27.56a22,22,0,0,1-1.35-4.28,21.14,21.14,0,0,1,10.5-22.65c.62-.34,1.26-.65,1.91-.93a20.56,20.56,0,0,1,4.08-1.26,21.12,21.12,0,0,1,22.65,10.49,21.13,21.13,0,0,1-.91,21.83Zm-25.86-11.91a8.19,8.19,0,0,1,4.24-6.79,8.19,8.19,0,0,1,12.13,7.58,8.19,8.19,0,0,1-16.37-.79Z" transform="translate(-126.6 26.26)"/><path class="cls-5" d="M200.34,183.26a4,4,0,0,0,2.24.24,4.14,4.14,0,1,0-4.55-5.62,4.14,4.14,0,0,0,2.31,5.38Z" transform="translate(-126.6 26.26)"/><path class="cls-5" d="M226.74,179.5l-4.22-2.12a20.52,20.52,0,0,0-1.72-6.45l2.62-3.94a.39.39,0,0,0,0-.45L220,162a.37.37,0,0,0-.43-.13L215,163.39a20.5,20.5,0,0,0-5.77-3.36l-.94-4.63a.38.38,0,0,0-.33-.31l-5.63-.75a.38.38,0,0,0-.39.21l-2.12,4.23a20.51,20.51,0,0,0-6.46,1.72l-3.94-2.62a.39.39,0,0,0-.45,0l-4.51,3.45a.37.37,0,0,0-.13.43l1.49,4.49A20.29,20.29,0,0,0,182.5,172l-4.64.93a.41.41,0,0,0-.31.33l-.75,5.63a.4.4,0,0,0,.21.4l4.23,2.12A20.45,20.45,0,0,0,183,187.9l-2.62,3.94a.41.41,0,0,0,0,.46l3.45,4.51a.4.4,0,0,0,.43.13l4.49-1.49a20.77,20.77,0,0,0,5.78,3.35l.94,4.63a.37.37,0,0,0,.33.31l5.62.75a.37.37,0,0,0,.4-.21l2.12-4.22a20.72,20.72,0,0,0,6.45-1.72l3.95,2.62a.39.39,0,0,0,.45,0l4.51-3.45a.39.39,0,0,0,.13-.43l-1.49-4.49a20.85,20.85,0,0,0,3.35-5.77l4.64-.94a.38.38,0,0,0,.3-.33l.76-5.63A.41.41,0,0,0,226.74,179.5Zm-10.3,1.78a14.6,14.6,0,0,1-23.55,9.49l1.12-1.4a12.81,12.81,0,0,0,20.66-8.32,12.8,12.8,0,1,0-25.38-3.39,13.08,13.08,0,0,0-.08,2.58.66.66,0,0,0,0,.14l-1.79.14a14.64,14.64,0,0,1,.09-3.1l0-.25A14.63,14.63,0,0,1,199.5,165q.72-.12,1.47-.18h0a15.2,15.2,0,0,1,2.93.1,14.61,14.61,0,0,1,12.45,12A14.45,14.45,0,0,1,216.44,181.28Zm-20.07-4.07a5.88,5.88,0,0,1,3.17-3.25,6.35,6.35,0,0,1,1.33-.4,6,6,0,0,1,3.21.34,5.94,5.94,0,1,1-7.71,3.31Z" transform="translate(-126.6 26.26)"/><path class="cls-5" d="M461.38,148.27l-1.17-5.8a.41.41,0,0,0-.35-.32l-4.89-.66a21.43,21.43,0,0,0-3.89-5.78l1.24-4.77a.39.39,0,0,0-.16-.44l-4.94-3.28a.41.41,0,0,0-.47,0l-3.92,3A21.21,21.21,0,0,0,436,128.9l-2.5-4.26a.41.41,0,0,0-.43-.19l-5.81,1.17a.41.41,0,0,0-.32.35l-.65,4.89a21.27,21.27,0,0,0-5.78,3.89l-4.78-1.24a.4.4,0,0,0-.44.16L412,138.61a.41.41,0,0,0,0,.47l3,3.92a21.48,21.48,0,0,0-1.34,6.83l-4.25,2.5a.4.4,0,0,0-.19.43l1.17,5.81a.39.39,0,0,0,.34.32l4.89.65a21.5,21.5,0,0,0,3.89,5.78l-1.24,4.78a.42.42,0,0,0,.17.44l4.93,3.27a.41.41,0,0,0,.47,0l3.92-3a21.54,21.54,0,0,0,6.84,1.34l2.5,4.25a.4.4,0,0,0,.43.19l5.8-1.17a.39.39,0,0,0,.32-.34l.66-4.89a21.66,21.66,0,0,0,5.78-3.89l4.77,1.24a.41.41,0,0,0,.44-.17l3.28-4.93a.41.41,0,0,0,0-.47l-3-3.92a21.27,21.27,0,0,0,1.34-6.84l4.26-2.5A.41.41,0,0,0,461.38,148.27Zm-13.31,10.57a15.22,15.22,0,0,1-17.75,5.93l.62-1.76a13.46,13.46,0,0,0,7.09.5,13.35,13.35,0,1,0-15.73-10.45,13.53,13.53,0,0,0,.8,2.58l.06.14-1.72.74a15.42,15.42,0,0,1-1-3.09c0-.08,0-.17-.05-.25a15.27,15.27,0,0,1,7.63-16.1c.45-.24.91-.47,1.39-.67h0a15.22,15.22,0,0,1,20.86,11A15.16,15.16,0,0,1,448.07,158.84Zm-18.94-8.62a6.16,6.16,0,0,1,2-4.29,6,6,0,0,1,1.18-.84A6.19,6.19,0,1,1,435,156.7a6.19,6.19,0,0,1-5.89-6.48Z" transform="translate(-126.6 26.26)"/><path class="cls-5" d="M435.11,154.83a4.29,4.29,0,0,0,2.28-.52,4.32,4.32,0,0,0-1.87-8.11,4.29,4.29,0,0,0-3.11,1.12,4.24,4.24,0,0,0-1.41,3,4.31,4.31,0,0,0,4.11,4.52Z" transform="translate(-126.6 26.26)"/><path class="cls-5" d="M365.05,202.22a8.81,8.81,0,0,0,4.25,1.06h0a8.87,8.87,0,1,0-7.81-13.1,8.87,8.87,0,0,0,3.55,12Z" transform="translate(-126.6 26.26)"/><path class="cls-5" d="M416.29,200.23l-7.51-5A39.59,39.59,0,0,0,407,182.68l5.83-6.86a.72.72,0,0,0,.08-.85l-5.5-9.3a.74.74,0,0,0-.78-.35l-8.83,1.8a39.18,39.18,0,0,0-10.15-7.64l-.73-9a.73.73,0,0,0-.55-.66l-10.46-2.69a.74.74,0,0,0-.8.31l-5,7.51a39.25,39.25,0,0,0-12.58,1.79l-6.86-5.84a.74.74,0,0,0-.85-.07l-9.3,5.5a.71.71,0,0,0-.35.78L342,166a39.4,39.4,0,0,0-7.64,10.16l-9,.72a.75.75,0,0,0-.66.56L322,187.86a.74.74,0,0,0,.31.8l7.51,5a39.31,39.31,0,0,0,1.79,12.59l-5.84,6.86a.74.74,0,0,0-.07.85l5.49,9.3a.75.75,0,0,0,.79.35l8.82-1.8A39.4,39.4,0,0,0,351,229.41l.72,9a.76.76,0,0,0,.56.66l10.46,2.69a.74.74,0,0,0,.8-.31l5-7.51a39.31,39.31,0,0,0,12.59-1.79l6.85,5.84a.75.75,0,0,0,.86.07l9.3-5.49a.76.76,0,0,0,.35-.79l-1.8-8.82a39.63,39.63,0,0,0,7.64-10.16l9-.72a.73.73,0,0,0,.65-.56L416.6,201A.75.75,0,0,0,416.29,200.23Zm-56-10.71a10.28,10.28,0,0,1,18.9,2,9.48,9.48,0,0,1-.84,7.54,10,10,0,0,1-9,5.08h0a10.08,10.08,0,0,1-4.91-1,10,10,0,0,1-4.11-13.67Zm35.05,11.39h0l.2.23.21.19h0s-.21,0-.22,0h-.1s-.06-.23-.06-.22l0-.24h0v.38s0,.09,0,.11,0,0,0,.06v0s0,.08,0,.11h0s-.05,0-.06.06l-.05,0h.32s.28,0,.28,0h0c-3,11.62-14.25,19.33-26.31,19.33h0a17.2,17.2,0,0,1-6.68-.89h0a26.18,26.18,0,0,1-20.1-25.69,25.77,25.77,0,0,1,.85-6.58,26.58,26.58,0,0,1,7.09-12.31.69.69,0,0,1,1,0,.71.71,0,0,1,.2.5.72.72,0,0,1-.2.5,25.28,25.28,0,0,0-6.73,11.73,24.23,24.23,0,0,0-.81,6.21A25,25,0,0,0,363.09,219h0l.29.14a26.34,26.34,0,0,0,6.6,1v0h0a24.79,24.79,0,0,0,24.25-18.93s-.13,0-.13,0-.07,0-.07,0l0-.07a.69.69,0,0,0,0-.08h0l.14.05.15,0h-.07s.07,0,.07,0h0a23,23,0,0,0,.67-6.34,25.41,25.41,0,0,0-19.13-24.55,24.59,24.59,0,0,0-5.25-.79.61.61,0,0,1-.57-.69v0c.3-.38.21-.68.59-.66a25.68,25.68,0,0,1,5.57.83,26.46,26.46,0,0,1,20.07,25.69A24.78,24.78,0,0,1,395.33,200.91Z" transform="translate(-126.6 26.26)"/><circle class="cls-6" cx="340.91" cy="281.1" r="25.32" transform="translate(-115 601.96) rotate(-81.32)"/><circle class="cls-7" cx="340.91" cy="281.1" r="24.48" transform="translate(-137.59 574.56) rotate(-76.72)"/><path class="cls-8" d="M320.72,271.2l-.12,0a.26.26,0,0,1-.12-.36,22.76,22.76,0,0,1,20.43-12.58,23.64,23.64,0,0,1,4.12.37.27.27,0,0,1,.22.32.27.27,0,0,1-.31.21,22.62,22.62,0,0,0-4-.36,22.25,22.25,0,0,0-20,12.28A.26.26,0,0,1,320.72,271.2Z" transform="translate(-126.6 26.26)"/><circle class="cls-8" cx="341.44" cy="281.63" r="20.72" transform="translate(-208.38 178.36) rotate(-22.5)"/><path class="cls-7" d="M339.41,297v-2.26a18.38,18.38,0,0,1-6.33-1.37,1.3,1.3,0,0,1-.72-1.54l.57-2.1a1.32,1.32,0,0,1,1.79-.86,15.21,15.21,0,0,0,5.84,1.23c2.26,0,3.95-.77,3.95-2.34s-1.3-2.26-4.45-3.11c-4.49-1.22-7.71-3.18-7.71-7.13,0-3.57,2.61-6.29,7.13-7v-2.26A1.32,1.32,0,0,1,340.8,267h1.32a1.32,1.32,0,0,1,1.32,1.31v2a16.61,16.61,0,0,1,5,.9,1.31,1.31,0,0,1,.82,1.57l-.53,2a1.3,1.3,0,0,1-1.73.88,13.64,13.64,0,0,0-4.92-.89c-2.68,0-3.45,1.11-3.45,2.11,0,1.23,1.61,2.07,5.1,3.14,5,1.5,7.06,3.57,7.06,7.29,0,3.42-2.53,6.49-7.44,7.26V297a1.31,1.31,0,0,1-1.31,1.31h-1.33A1.31,1.31,0,0,1,339.41,297Z" transform="translate(-126.6 26.26)"/><circle class="cls-6" cx="400.99" cy="244.33" r="21.47" transform="translate(-31.01 627.26) rotate(-80.78)"/><circle class="cls-7" cx="400.99" cy="244.33" r="20.75" transform="translate(-104.79 547.55) rotate(-67.5)"/><path class="cls-8" d="M383.88,235.94a.19.19,0,0,1-.1,0,.22.22,0,0,1-.1-.3,19.37,19.37,0,0,1,20.81-10.35.22.22,0,0,1,.18.26.23.23,0,0,1-.26.19,18.59,18.59,0,0,0-3.42-.31,18.85,18.85,0,0,0-16.9,10.41A.24.24,0,0,1,383.88,235.94Z" transform="translate(-126.6 26.26)"/><circle class="cls-8" cx="401.45" cy="244.78" r="17.56" transform="translate(-165.64 106.59) rotate(-10.9)"/><path class="cls-7" d="M399.72,257.84v-1.91a15.42,15.42,0,0,1-5.36-1.17,1.1,1.1,0,0,1-.61-1.3l.48-1.78a1.12,1.12,0,0,1,1.52-.73,12.93,12.93,0,0,0,4.95,1c1.92,0,3.35-.65,3.35-2s-1.11-1.92-3.78-2.64c-3.8-1-6.53-2.7-6.53-6,0-3,2.21-5.34,6.05-6v-1.91a1.11,1.11,0,0,1,1.11-1.11H402a1.12,1.12,0,0,1,1.12,1.11v1.72a14.29,14.29,0,0,1,4.25.76,1.11,1.11,0,0,1,.69,1.34l-.45,1.65a1.11,1.11,0,0,1-1.46.75,11.4,11.4,0,0,0-4.17-.76c-2.28,0-2.93.94-2.93,1.79,0,1,1.37,1.75,4.33,2.66,4.22,1.27,6,3,6,6.18,0,2.9-2.15,5.5-6.31,6.15v2.14A1.11,1.11,0,0,1,402,259h-1.13A1.11,1.11,0,0,1,399.72,257.84Z" transform="translate(-126.6 26.26)"/><circle class="cls-6" cx="300.96" cy="256.62" r="15.22" transform="translate(-106.2 561.64) rotate(-85.27)"/><circle class="cls-7" cx="300.96" cy="256.62" r="14.71" transform="translate(-127.15 538.84) rotate(-80.78)"/><path class="cls-8" d="M288.83,250.67l-.07,0a.17.17,0,0,1-.08-.22,13.8,13.8,0,0,1,14.76-7.33.16.16,0,0,1,.13.19.18.18,0,0,1-.19.13,13,13,0,0,0-2.42-.22,13.37,13.37,0,0,0-12,7.38A.17.17,0,0,1,288.83,250.67Z" transform="translate(-126.6 26.26)"/><circle class="cls-8" cx="174.68" cy="283.19" r="12.45"/><path class="cls-7" d="M300.06,266.19v-1.35a11,11,0,0,1-3.8-.83.78.78,0,0,1-.44-.92l.35-1.26a.78.78,0,0,1,1.07-.52,9.21,9.21,0,0,0,3.51.74c1.36,0,2.37-.46,2.37-1.41s-.78-1.36-2.67-1.86c-2.7-.74-4.63-1.92-4.63-4.29,0-2.15,1.56-3.78,4.28-4.22v-1.36a.79.79,0,0,1,.79-.78h.8a.79.79,0,0,1,.79.78v1.22a10.16,10.16,0,0,1,3,.54.78.78,0,0,1,.49,1l-.32,1.17a.78.78,0,0,1-1,.53,8.31,8.31,0,0,0-3-.54c-1.61,0-2.07.67-2.07,1.27s1,1.24,3.06,1.89c3,.9,4.24,2.14,4.24,4.38,0,2.05-1.52,3.9-4.47,4.36v1.51a.79.79,0,0,1-.79.79h-.79A.79.79,0,0,1,300.06,266.19Z" transform="translate(-126.6 26.26)"/><circle class="cls-6" cx="393.35" cy="295.31" r="13.82" transform="matrix(0.05, -1, 1, 0.05, -46.08, 701.13)"/><circle class="cls-7" cx="393.35" cy="295.31" r="13.36" transform="translate(-74.41 675.89) rotate(-82.98)"/><path class="cls-8" d="M382.33,289.91l-.07,0a.14.14,0,0,1-.06-.2,12.44,12.44,0,0,1,11.15-6.86,13.07,13.07,0,0,1,2.25.2.15.15,0,0,1,.12.17.15.15,0,0,1-.17.12,12.42,12.42,0,0,0-2.2-.2,12.14,12.14,0,0,0-10.89,6.71A.14.14,0,0,1,382.33,289.91Z" transform="translate(-126.6 26.26)"/><circle class="cls-8" cx="393.64" cy="295.6" r="11.31" transform="translate(-111.09 637.05) rotate(-76.72)"/><path class="cls-7" d="M392.53,304v-1.23a10.1,10.1,0,0,1-3.45-.75.72.72,0,0,1-.4-.84L389,300a.72.72,0,0,1,1-.47,8.23,8.23,0,0,0,3.19.67c1.23,0,2.15-.41,2.15-1.27s-.71-1.24-2.42-1.7c-2.45-.67-4.21-1.74-4.21-3.89,0-1.95,1.42-3.44,3.89-3.83v-1.23a.72.72,0,0,1,.72-.72H394a.72.72,0,0,1,.72.72v1.1a9.22,9.22,0,0,1,2.73.49.71.71,0,0,1,.45.86l-.29,1.06a.72.72,0,0,1-.94.49,7.4,7.4,0,0,0-2.68-.49c-1.47,0-1.89.61-1.89,1.15s.88,1.13,2.79,1.72c2.72.81,3.85,1.94,3.85,4,0,1.87-1.38,3.54-4.06,4V304a.72.72,0,0,1-.72.72h-.72A.72.72,0,0,1,392.53,304Z" transform="translate(-126.6 26.26)"/><circle class="cls-4" cx="318.92" cy="22.88" r="32.24" transform="translate(143.71 365.16) rotate(-85.36)"/><circle class="cls-4" cx="318.92" cy="22.88" r="31.17" transform="translate(11.01 312.5) rotate(-59.56)"/><path class="cls-5" d="M290.19,21.68h0a.33.33,0,0,1-.31-.35,29.78,29.78,0,0,1,.43-3.65.33.33,0,1,1,.64.12,28.26,28.26,0,0,0-.41,3.57A.33.33,0,0,1,290.19,21.68Z" transform="translate(-126.6 26.26)"/><path class="cls-5" d="M293.22,10.26l-.15,0a.34.34,0,0,1-.14-.45,29,29,0,0,1,26-16,29.71,29.71,0,0,1,5.25.47.33.33,0,0,1,.27.38.34.34,0,0,1-.39.27,28.49,28.49,0,0,0-30.53,15.18A.33.33,0,0,1,293.22,10.26Z" transform="translate(-126.6 26.26)"/><circle class="cls-5" cx="319.6" cy="23.56" r="26.38" transform="translate(-122.94 103.49) rotate(-13.86)"/><path class="cls-4" d="M327.33,13.13c0,4.62-3.74,9.61-8.36,9.61s-8.37-5-8.37-9.61,3.75-7.9,8.37-7.9S327.33,8.51,327.33,13.13Z" transform="translate(-126.6 26.26)"/><path class="cls-4" d="M308.58,40.53H329a5,5,0,0,0,4.71-3.44l1.1-3.43a5,5,0,0,0-3-6.15c-8.31-3-16.91-2.65-25.71.28a4.91,4.91,0,0,0-3.15,6l.84,3.12A5,5,0,0,0,308.58,40.53Z" transform="translate(-126.6 26.26)"/><circle class="cls-4" cx="397.19" cy="46.19" r="20.57" transform="translate(145.07 452.1) rotate(-78.34)"/><circle class="cls-4" cx="397.19" cy="46.19" r="19.88" transform="translate(27.01 389.56) rotate(-59.1)"/><path class="cls-5" d="M378.86,45.43h0a.21.21,0,0,1-.2-.23,18.27,18.27,0,0,1,.27-2.33.21.21,0,0,1,.24-.17.21.21,0,0,1,.17.25,19.16,19.16,0,0,0-.26,2.28A.22.22,0,0,1,378.86,45.43Z" transform="translate(-126.6 26.26)"/><path class="cls-5" d="M380.79,38.14l-.09,0a.21.21,0,0,1-.09-.29,18.5,18.5,0,0,1,16.58-10.21,17.85,17.85,0,0,1,3.35.31.21.21,0,0,1,.17.24.22.22,0,0,1-.25.17,17.84,17.84,0,0,0-3.27-.3A18.09,18.09,0,0,0,381,38,.21.21,0,0,1,380.79,38.14Z" transform="translate(-126.6 26.26)"/><circle class="cls-5" cx="271.03" cy="72.88" r="16.83"/><path class="cls-4" d="M402.56,40c0,3-2.39,6.13-5.34,6.13s-5.34-3.18-5.34-6.13a5.35,5.35,0,0,1,10.68,0Z" transform="translate(-126.6 26.26)"/><path class="cls-4" d="M390.59,57.45h13a3.16,3.16,0,0,0,3-2.19l.7-2.19a3.16,3.16,0,0,0-1.9-3.93c-5.31-1.93-10.79-1.69-16.41.18a3.15,3.15,0,0,0-2,3.81l.54,2A3.15,3.15,0,0,0,390.59,57.45Z" transform="translate(-126.6 26.26)"/><circle class="cls-4" cx="114.06" cy="69.84" r="20.57"/><circle class="cls-4" cx="114.06" cy="69.84" r="19.88"/><path class="cls-5" d="M222.32,42.82h0a.21.21,0,0,1-.2-.22,18.27,18.27,0,0,1,.27-2.33.21.21,0,0,1,.25-.17.21.21,0,0,1,.17.24,17.51,17.51,0,0,0-.27,2.28A.21.21,0,0,1,222.32,42.82Z" transform="translate(-126.6 26.26)"/><path class="cls-5" d="M224.26,35.54a.17.17,0,0,1-.1,0,.21.21,0,0,1-.09-.28A18.48,18.48,0,0,1,240.65,25a18.72,18.72,0,0,1,3.35.3.21.21,0,0,1,.17.25.2.2,0,0,1-.24.16,19,19,0,0,0-3.28-.29,18.07,18.07,0,0,0-16.21,10A.21.21,0,0,1,224.26,35.54Z" transform="translate(-126.6 26.26)"/><circle class="cls-5" cx="114.49" cy="70.28" r="16.83"/><path class="cls-4" d="M246,37.36c0,3-2.39,6.14-5.34,6.14s-5.34-3.19-5.34-6.14a5.35,5.35,0,0,1,10.68,0Z" transform="translate(-126.6 26.26)"/><path class="cls-4" d="M234.06,54.85h13a3.15,3.15,0,0,0,3-2.2l.7-2.19a3.15,3.15,0,0,0-1.9-3.92c-5.3-1.94-10.79-1.69-16.41.18a3.15,3.15,0,0,0-2,3.81l.54,2A3.16,3.16,0,0,0,234.06,54.85Z" transform="translate(-126.6 26.26)"/><circle class="cls-4" cx="255.74" cy="-5.69" r="20.57" transform="translate(94.73 274.05) rotate(-80.99)"/><circle class="cls-4" cx="255.74" cy="-5.69" r="19.88" transform="translate(-102.97 128.09) rotate(-23.58)"/><path class="cls-5" d="M237.41-6.45h0a.21.21,0,0,1-.2-.22A18.22,18.22,0,0,1,237.47-9a.21.21,0,0,1,.24-.17.21.21,0,0,1,.17.25,19.16,19.16,0,0,0-.26,2.28A.22.22,0,0,1,237.41-6.45Z" transform="translate(-126.6 26.26)"/><path class="cls-5" d="M239.34-13.74l-.09,0a.2.2,0,0,1-.09-.28,18.49,18.49,0,0,1,16.58-10.22,18.81,18.81,0,0,1,3.35.31.21.21,0,0,1,.17.24.21.21,0,0,1-.25.17,17.83,17.83,0,0,0-3.27-.29,18.07,18.07,0,0,0-16.21,10A.21.21,0,0,1,239.34-13.74Z" transform="translate(-126.6 26.26)"/><circle class="cls-5" cx="256.17" cy="-5.26" r="16.83" transform="translate(94.5 274.82) rotate(-80.96)"/><path class="cls-4" d="M261.11-11.91c0,2.95-2.39,6.13-5.34,6.13s-5.34-3.18-5.34-6.13a5.09,5.09,0,0,1,5.34-5A5.09,5.09,0,0,1,261.11-11.91Z" transform="translate(-126.6 26.26)"/><path class="cls-4" d="M249.14,5.57h13a3.15,3.15,0,0,0,3-2.19l.7-2.19A3.15,3.15,0,0,0,264-2.73c-5.31-1.94-10.79-1.69-16.41.18a3.14,3.14,0,0,0-2,3.8l.54,2A3.15,3.15,0,0,0,249.14,5.57Z" transform="translate(-126.6 26.26)"/><circle class="cls-4" cx="382.1" cy="-3.56" r="20.57" transform="translate(199.21 400.64) rotate(-80.99)"/><circle class="cls-4" cx="382.1" cy="-3.56" r="19.88" transform="translate(-93.27 178.81) rotate(-23.58)"/><path class="cls-5" d="M363.77-4.33h0a.21.21,0,0,1-.2-.22,18.27,18.27,0,0,1,.27-2.33.22.22,0,0,1,.25-.17.22.22,0,0,1,.17.25A17.15,17.15,0,0,0,364-4.53.2.2,0,0,1,363.77-4.33Z" transform="translate(-126.6 26.26)"/><path class="cls-5" d="M365.71-11.61l-.1,0a.22.22,0,0,1-.09-.29A18.48,18.48,0,0,1,382.1-22.13a18.72,18.72,0,0,1,3.35.3.21.21,0,0,1,.17.25.21.21,0,0,1-.24.17,18,18,0,0,0-3.28-.3,18.09,18.09,0,0,0-16.21,10A.19.19,0,0,1,365.71-11.61Z" transform="translate(-126.6 26.26)"/><circle class="cls-5" cx="255.94" cy="23.13" r="16.83"/><path class="cls-4" d="M387.47-9.78c0,2.95-2.39,6.13-5.34,6.13s-5.34-3.18-5.34-6.13a5.09,5.09,0,0,1,5.34-5A5.09,5.09,0,0,1,387.47-9.78Z" transform="translate(-126.6 26.26)"/><path class="cls-4" d="M375.51,7.7h13a3.16,3.16,0,0,0,3-2.19l.7-2.2a3.15,3.15,0,0,0-1.9-3.92c-5.3-1.94-10.79-1.69-16.41.18a3.15,3.15,0,0,0-2,3.81l.54,2A3.16,3.16,0,0,0,375.51,7.7Z" transform="translate(-126.6 26.26)"/><path class="cls-7" d="M373.81,193.8H264.13c-21.47-43.81-42.94-88.21-64.41-132h238.5C416.75,105.59,395.28,150,373.81,193.8Z" transform="translate(-126.6 26.26)"/><rect class="cls-6" x="65.49" y="82.71" width="253.68" height="10.06" rx="2.77"/><path class="cls-7" d="M365.93,245.61H272c-2.73-16.88-5.45-34.34-8.17-51.81H374.1C371.38,211.27,368.66,228.73,365.93,245.61Z" transform="translate(-126.6 26.26)"/><path class="cls-6" d="M368.8,246c0,1.9-1.24,3.47-2.62,3.47H271c-1.38,0-2.29-1.57-2.29-3.47v-2.12c0-1.91.91-3.58,2.29-3.58h95.14c1.38,0,2.62,1.67,2.62,3.58Z" transform="translate(-126.6 26.26)"/><path class="cls-9" d="M258.11,171.84a.76.76,0,0,1-.71-.46L215.58,75.61a.79.79,0,0,1,.41-1,.77.77,0,0,1,1,.41l41.82,95.76a.78.78,0,0,1-.41,1A.85.85,0,0,1,258.11,171.84Z" transform="translate(-126.6 26.26)"/><path class="cls-9" d="M273.63,234a.78.78,0,0,1-.77-.68l-4-31.82a.78.78,0,0,1,1.55-.2l3.95,31.83a.78.78,0,0,1-.67.87Z" transform="translate(-126.6 26.26)"/><path class="cls-9" d="M209.31,16.85h-1.75a.63.63,0,1,1,0-1.25h1.76a.63.63,0,0,1,.62.63A.61.61,0,0,1,209.31,16.85Z" transform="translate(-126.6 26.26)"/><path class="cls-9" d="M203.47,16.85h-1.76a.64.64,0,1,1,0-1.27h1.76a.64.64,0,1,1,0,1.27Z" transform="translate(-126.6 26.26)"/><path class="cls-9" d="M197.63,16.93l-1.76,0a.64.64,0,0,1-.66-.62.66.66,0,0,1,.63-.66h0l1.76,0a.64.64,0,0,1,0,1.28Z" transform="translate(-126.6 26.26)"/><path class="cls-9" d="M191.79,17.12,190,17.2a.66.66,0,0,1-.68-.62.65.65,0,0,1,.62-.68h0l1.75-.07a.65.65,0,1,1,.06,1.29Z" transform="translate(-126.6 26.26)"/><path class="cls-9" d="M186,17.43l-1.75.11a.65.65,0,0,1-.7-.6.66.66,0,0,1,.61-.7h0l1.75-.12a.66.66,0,1,1,.09,1.31Z" transform="translate(-126.6 26.26)"/><path class="cls-9" d="M180.14,17.87l-1.75.16a.66.66,0,1,1-.12-1.31h0l1.75-.16a.66.66,0,1,1,.12,1.31Z" transform="translate(-126.6 26.26)"/><path class="cls-9" d="M174.34,18.46l-1.75.22a.67.67,0,0,1-.74-.59.66.66,0,0,1,.58-.74h0l1.75-.21a.68.68,0,0,1,.74.59A.66.66,0,0,1,174.34,18.46Z" transform="translate(-126.6 26.26)"/><path class="cls-9" d="M168.55,19.23l-1.73.26a.67.67,0,0,1-.77-.56.68.68,0,0,1,.56-.77h0l1.73-.26a.68.68,0,0,1,.77.56A.68.68,0,0,1,168.55,19.23Z" transform="translate(-126.6 26.26)"/><path class="cls-9" d="M137,219.54l1.5.91a.82.82,0,0,1-.85,1.4h0l-1.5-.91a.82.82,0,1,1,.85-1.4Z" transform="translate(-126.6 26.26)"/><path class="cls-9" d="M142.05,222.46l1.54.83a.84.84,0,0,1,.34,1.12.82.82,0,0,1-1.12.33h0l-1.54-.83a.84.84,0,0,1-.34-1.12A.82.82,0,0,1,142.05,222.46Z" transform="translate(-126.6 26.26)"/><path class="cls-9" d="M147.21,225.13l1.59.75a.83.83,0,0,1,.39,1.1.82.82,0,0,1-1.1.39h0l-1.59-.75a.83.83,0,0,1-.39-1.1A.82.82,0,0,1,147.21,225.13Z" transform="translate(-126.6 26.26)"/><path class="cls-9" d="M152.5,227.53l1.63.67a.82.82,0,0,1,.44,1.08.83.83,0,0,1-1.08.45h0l-1.62-.68a.82.82,0,1,1,.63-1.52Z" transform="translate(-126.6 26.26)"/><path class="cls-9" d="M157.91,229.65l1.66.58a.82.82,0,0,1,.5,1.06.83.83,0,0,1-1.06.51h0l-1.65-.59a.84.84,0,0,1-.51-1.06A.83.83,0,0,1,157.91,229.65Z" transform="translate(-126.6 26.26)"/><path class="cls-9" d="M163.42,231.47l1.69.5a.83.83,0,1,1-.47,1.59h0l-1.68-.49a.83.83,0,1,1,.46-1.6Z" transform="translate(-126.6 26.26)"/><path class="cls-9" d="M169,233l1.71.4a.84.84,0,0,1,.62,1,.83.83,0,0,1-1,.62h0l-1.71-.4A.83.83,0,1,1,169,233Z" transform="translate(-126.6 26.26)"/><path class="cls-9" d="M174.7,234.2l1.73.31a.83.83,0,1,1-.28,1.64h0l-1.73-.3a.83.83,0,0,1-.68-1A.84.84,0,0,1,174.7,234.2Z" transform="translate(-126.6 26.26)"/><path class="cls-9" d="M180.44,235.09l1.74.2a.84.84,0,0,1,.74.93.83.83,0,0,1-.93.73h0l-1.74-.2a.84.84,0,0,1-.74-.93A.83.83,0,0,1,180.44,235.09Z" transform="translate(-126.6 26.26)"/><path class="cls-9" d="M186.22,235.63l1.75.1a.85.85,0,0,1,.79.89.83.83,0,0,1-.88.79h0l-1.76-.1a.83.83,0,0,1-.79-.88A.85.85,0,0,1,186.22,235.63Z" transform="translate(-126.6 26.26)"/><path class="cls-9" d="M192,235.84h1.76a.85.85,0,0,1,.84.84.83.83,0,0,1-.84.85H192a.86.86,0,0,1-.85-.85.85.85,0,0,1,.85-.84Z" transform="translate(-126.6 26.26)"/><path class="cls-9" d="M197.82,235.71l1.76-.09a.84.84,0,1,1,.09,1.68h0l-1.75.1a.84.84,0,0,1-.89-.8A.85.85,0,0,1,197.82,235.71Z" transform="translate(-126.6 26.26)"/><path class="cls-9" d="M203.62,235.29l1.74-.19a.86.86,0,0,1,.94.76.85.85,0,0,1-.76.93h0l-1.74.18a.84.84,0,1,1-.18-1.68Z" transform="translate(-126.6 26.26)"/><path class="cls-9" d="M209.39,234.58l1.73-.27a.85.85,0,0,1,.26,1.68h0l-1.74.27a.85.85,0,0,1-.25-1.68Z" transform="translate(-126.6 26.26)"/><path class="cls-9" d="M215.12,233.6l1.72-.35a.86.86,0,0,1,.33,1.68h0l-1.72.34a.85.85,0,0,1-.33-1.67Z" transform="translate(-126.6 26.26)"/><path class="cls-9" d="M220.8,232.37l1.7-.43a.86.86,0,0,1,1,.63.85.85,0,0,1-.63,1h0l-1.7.42a.85.85,0,1,1-.41-1.65Z" transform="translate(-126.6 26.26)"/><path class="cls-9" d="M226.43,230.89l1.68-.49a.86.86,0,0,1,.48,1.65h0l-1.69.49a.86.86,0,0,1-.47-1.65Z" transform="translate(-126.6 26.26)"/><path class="cls-9" d="M232,229.19l1.67-.55a.86.86,0,1,1,.54,1.63h0l-1.67.55a.85.85,0,0,1-1.08-.54A.86.86,0,0,1,232,229.19Z" transform="translate(-126.6 26.26)"/><path class="cls-9" d="M237.5,227.29l1.64-.61a.86.86,0,1,1,.6,1.61h0l-1.65.61a.86.86,0,0,1-.59-1.61Z" transform="translate(-126.6 26.26)"/><path class="cls-9" d="M242.93,225.2l1.63-.67a.86.86,0,0,1,1.12.47.87.87,0,0,1-.47,1.13h0l-1.63.66a.86.86,0,0,1-.65-1.59Z" transform="translate(-126.6 26.26)"/><path class="cls-9" d="M248.3,222.93l1.6-.71a.87.87,0,0,1,1.15.43.88.88,0,0,1-.44,1.15h0l-1.61.71a.85.85,0,0,1-1.14-.44A.86.86,0,0,1,248.3,222.93Z" transform="translate(-126.6 26.26)"/><path class="cls-9" d="M253.6,220.51l1.58-.76a.87.87,0,1,1,.75,1.57h0l-1.58.75a.87.87,0,1,1-.75-1.56Z" transform="translate(-126.6 26.26)"/><path class="cls-9" d="M258.84,217.94l1.56-.8a.87.87,0,0,1,.79,1.55h0l-1.56.8a.87.87,0,1,1-.79-1.55Z" transform="translate(-126.6 26.26)"/><path class="cls-9" d="M264,215.25l1.54-.84a.88.88,0,0,1,1.19.36.87.87,0,0,1-.36,1.18h0l-1.54.83a.87.87,0,0,1-.83-1.53Z" transform="translate(-126.6 26.26)"/><path class="cls-9" d="M269.12,212.44l1.53-.87a.87.87,0,0,1,.86,1.52h0L270,214a.87.87,0,0,1-1.19-.33A.88.88,0,0,1,269.12,212.44Z" transform="translate(-126.6 26.26)"/><path class="cls-9" d="M274.18,209.52l1.51-.89a.88.88,0,1,1,.89,1.51h0l-1.51.89a.87.87,0,0,1-1.2-.31A.88.88,0,0,1,274.18,209.52Z" transform="translate(-126.6 26.26)"/><path class="cls-9" d="M279.18,206.52l1.5-.92a.88.88,0,0,1,.92,1.5h0l-1.49.92a.89.89,0,0,1-1.21-.29A.87.87,0,0,1,279.18,206.52Z" transform="translate(-126.6 26.26)"/><path class="cls-9" d="M284.14,203.43l1.48-.94a.88.88,0,0,1,.95,1.49h0l-1.48.94a.88.88,0,1,1-.95-1.49Z" transform="translate(-126.6 26.26)"/><path class="cls-9" d="M289.06,200.27l1.47-1a.88.88,0,1,1,1,1.48l-1.47,1a.88.88,0,1,1-1-1.48Z" transform="translate(-126.6 26.26)"/><path class="cls-9" d="M293.94,197.06l1.46-1a.87.87,0,0,1,1.21.24.88.88,0,0,1-.24,1.22l-1.46,1a.88.88,0,0,1-1-1.46Z" transform="translate(-126.6 26.26)"/><path class="cls-9" d="M298.78,193.79l1.45-1a.87.87,0,0,1,1,1.44l-1.45,1a.87.87,0,1,1-1-1.44Z" transform="translate(-126.6 26.26)"/><path class="cls-9" d="M303.6,190.48l1.45-1a.87.87,0,0,1,1,1.43l-1.45,1a.87.87,0,0,1-1.21-.22.88.88,0,0,1,.22-1.21Z" transform="translate(-126.6 26.26)"/><path class="cls-9" d="M308.41,187.15l1.45-1a.86.86,0,1,1,1,1.41l-1.44,1a.86.86,0,0,1-1.2-.21.88.88,0,0,1,.21-1.21Z" transform="translate(-126.6 26.26)"/><path class="cls-9" d="M313.22,183.81l1.44-1a.86.86,0,0,1,1,1.41l-1.44,1a.86.86,0,1,1-1-1.41Z" transform="translate(-126.6 26.26)"/><path class="cls-9" d="M318,180.46l1.44-1a.85.85,0,0,1,1.19.22.84.84,0,0,1-.21,1.18l-1.44,1a.86.86,0,0,1-1-1.41Z" transform="translate(-126.6 26.26)"/><path class="cls-9" d="M322.84,177.13l1.44-1a.85.85,0,0,1,1,1.4l-1.45,1a.85.85,0,1,1-1-1.4Z" transform="translate(-126.6 26.26)"/><path class="cls-9" d="M327.67,173.81l1.45-1a.83.83,0,0,1,1.17.22.84.84,0,0,1-.22,1.17l-1.45,1a.84.84,0,0,1-1.18-.22.85.85,0,0,1,.23-1.18Z" transform="translate(-126.6 26.26)"/><path class="cls-9" d="M332.52,170.53l1.46-1a.84.84,0,0,1,.93,1.4l-1.45,1a.85.85,0,0,1-1.17-.23.84.84,0,0,1,.23-1.17Z" transform="translate(-126.6 26.26)"/><path class="cls-9" d="M337.4,167.29l1.47-1a.83.83,0,1,1,.92,1.39l-1.47,1a.85.85,0,0,1-1.16-.24.84.84,0,0,1,.24-1.16Z" transform="translate(-126.6 26.26)"/><path class="cls-9" d="M342.32,164.1l1.48-.95a.84.84,0,0,1,.9,1.41l-1.48.94a.83.83,0,1,1-.9-1.4Z" transform="translate(-126.6 26.26)"/><path class="cls-9" d="M347.29,161l1.49-.92a.83.83,0,1,1,.87,1.41l-1.49.92a.83.83,0,0,1-.88-1.41Z" transform="translate(-126.6 26.26)"/><path class="cls-9" d="M352.3,157.92l1.51-.89a.83.83,0,0,1,1.13.29.82.82,0,0,1-.29,1.12l-1.51.9a.82.82,0,1,1-.84-1.42Z" transform="translate(-126.6 26.26)"/><path class="cls-9" d="M357.37,155l1.52-.86a.82.82,0,0,1,1.12.31.81.81,0,0,1-.31,1.11l-1.52.87a.82.82,0,1,1-.81-1.43Z" transform="translate(-126.6 26.26)"/><path class="cls-9" d="M362.5,152.11l1.54-.83a.81.81,0,1,1,.77,1.43l-1.54.83a.81.81,0,0,1-.78-1.43Z" transform="translate(-126.6 26.26)"/><path class="cls-9" d="M367.69,149.37l1.57-.8A.81.81,0,0,1,370,150l-1.57.79a.81.81,0,1,1-.73-1.44Z" transform="translate(-126.6 26.26)"/><path class="cls-9" d="M373,146.76l1.59-.75a.8.8,0,1,1,.69,1.45l-1.58.76a.81.81,0,0,1-.7-1.46Z" transform="translate(-126.6 26.26)"/><path class="cls-9" d="M378.29,144.3l1.61-.71a.8.8,0,0,1,.64,1.47l-1.61.7a.8.8,0,0,1-.64-1.46Z" transform="translate(-126.6 26.26)"/><path class="cls-9" d="M383.7,142l1.63-.65a.8.8,0,0,1,.59,1.48l-1.63.65a.78.78,0,0,1-1-.44.79.79,0,0,1,.44-1Z" transform="translate(-126.6 26.26)"/><path class="cls-9" d="M389.18,139.87l1.65-.6a.79.79,0,0,1,1,.47.8.8,0,0,1-.47,1l-1.65.6a.79.79,0,1,1-.54-1.49Z" transform="translate(-126.6 26.26)"/><path class="cls-9" d="M394.73,137.93l1.67-.54a.79.79,0,0,1,1,.51.78.78,0,0,1-.5,1l-1.67.54a.79.79,0,1,1-.49-1.5Z" transform="translate(-126.6 26.26)"/><path class="cls-9" d="M400.35,136.2l1.7-.48a.78.78,0,0,1,1,.55.77.77,0,0,1-.54,1h0l-1.69.48h0a.79.79,0,1,1-.43-1.51Z" transform="translate(-126.6 26.26)"/><path class="cls-9" d="M406.05,134.7l1.72-.39a.78.78,0,1,1,.34,1.52l-1.71.39a.77.77,0,0,1-.93-.58.78.78,0,0,1,.58-.94Z" transform="translate(-126.6 26.26)"/><path class="cls-9" d="M411.83,133.5l1.73-.29a.78.78,0,0,1,.26,1.53l-1.73.29a.78.78,0,0,1-.9-.63.79.79,0,0,1,.64-.9Z" transform="translate(-126.6 26.26)"/><path class="cls-9" d="M417.67,132.65l1.74-.18a.78.78,0,0,1,.85.69.77.77,0,0,1-.69.84l-1.74.18a.76.76,0,0,1-.85-.68.77.77,0,0,1,.69-.85Z" transform="translate(-126.6 26.26)"/><path class="cls-9" d="M423.56,132.21l1.76-.05a.77.77,0,0,1,0,1.53l-1.76.05a.77.77,0,0,1-.78-.75.75.75,0,0,1,.74-.78Z" transform="translate(-126.6 26.26)"/><path class="cls-9" d="M429.48,132.23l1.75.11a.76.76,0,0,1,.71.81.75.75,0,0,1-.8.71l-1.75-.11a.76.76,0,1,1,.09-1.52Z" transform="translate(-126.6 26.26)"/><path class="cls-9" d="M435.38,132.81l1.73.29a.75.75,0,0,1-.24,1.49l-1.74-.29a.76.76,0,0,1,.25-1.49Z" transform="translate(-126.6 26.26)"/><path class="cls-9" d="M441.19,134l1.69.49a.75.75,0,1,1-.41,1.44l-1.69-.48a.75.75,0,1,1,.41-1.45Z" transform="translate(-126.6 26.26)"/><path class="cls-9" d="M446.83,135.92l1.61.7a.75.75,0,0,1,.39,1,.76.76,0,0,1-1,.39l-1.61-.7a.75.75,0,0,1,.6-1.38Z" transform="translate(-126.6 26.26)"/><path class="cls-9" d="M452.17,138.55l1.49.92a.75.75,0,0,1,.25,1,.74.74,0,0,1-1,.24l-1.5-.91a.74.74,0,1,1,.77-1.27Z" transform="translate(-126.6 26.26)"/><path class="cls-9" d="M457.08,141.91l1.36,1.11a.74.74,0,0,1,.1,1,.73.73,0,0,1-1,.1l-1.36-1.11a.74.74,0,0,1-.1-1,.73.73,0,0,1,1-.1Z" transform="translate(-126.6 26.26)"/><path class="cls-9" d="M461.49,145.9l1.19,1.28a.74.74,0,0,1,0,1,.73.73,0,0,1-1,0l-1.21-1.28a.74.74,0,1,1,1.08-1Z" transform="translate(-126.6 26.26)"/><path class="cls-9" d="M465.34,150.42l1,1.42a.73.73,0,0,1-.16,1,.72.72,0,0,1-1-.16l-1-1.42a.72.72,0,0,1,1.17-.85Z" transform="translate(-126.6 26.26)"/><path class="cls-9" d="M468.61,155.37l.86,1.53a.71.71,0,0,1-1.23.69l-.86-1.53a.71.71,0,1,1,1.23-.69Z" transform="translate(-126.6 26.26)"/><path class="cls-9" d="M471.29,160.66l.68,1.62a.69.69,0,0,1-1.28.53L470,161.2a.7.7,0,1,1,1.28-.55Z" transform="translate(-126.6 26.26)"/><path class="cls-9" d="M473.36,166.21l.49,1.69a.67.67,0,0,1-.46.84.68.68,0,0,1-.84-.46l-.5-1.68a.68.68,0,0,1,1.31-.39Z" transform="translate(-126.6 26.26)"/><path class="cls-9" d="M474.8,172l.3,1.73a.65.65,0,0,1-.54.77.67.67,0,0,1-.77-.54l-.31-1.73a.65.65,0,0,1,.54-.77.67.67,0,0,1,.78.54Z" transform="translate(-126.6 26.26)"/><path class="cls-9" d="M475.62,177.82l.13,1.75a.65.65,0,0,1-1.3.1l-.14-1.75a.66.66,0,1,1,1.31-.1Z" transform="translate(-126.6 26.26)"/><path class="cls-9" d="M475.86,183.73l0,1.75a.64.64,0,0,1-.65.63.64.64,0,0,1-.63-.65l0-1.76a.64.64,0,1,1,1.28,0Z" transform="translate(-126.6 26.26)"/><path class="cls-9" d="M475.56,189.62l-.19,1.75a.62.62,0,1,1-1.24-.13l.18-1.75a.63.63,0,0,1,1.25.13Z" transform="translate(-126.6 26.26)"/><path class="cls-9" d="M474.76,195.47l-.34,1.73a.61.61,0,0,1-1.2-.23l.32-1.73a.62.62,0,0,1,1.22.23Z" transform="translate(-126.6 26.26)"/><path class="cls-9" d="M473.48,201.23l-.46,1.7a.61.61,0,0,1-.74.42.6.6,0,0,1-.42-.74l.45-1.7a.6.6,0,0,1,.74-.42.6.6,0,0,1,.43.74Z" transform="translate(-126.6 26.26)"/><path class="cls-9" d="M471.77,206.87l-.59,1.66a.59.59,0,0,1-1.11-.39l.58-1.66a.59.59,0,0,1,.76-.36.58.58,0,0,1,.36.75Z" transform="translate(-126.6 26.26)"/><circle class="cls-4" cx="450.34" cy="9.12" r="24.4" transform="translate(260.47 481.35) rotate(-83.08)"/><circle class="cls-4" cx="450.34" cy="9.12" r="23.59" transform="translate(-126.68 37.22) rotate(-1.39)"/><path class="cls-5" d="M428.6,8.21h0a.24.24,0,0,1-.24-.26,23.09,23.09,0,0,1,.32-2.76A.26.26,0,0,1,429,5a.25.25,0,0,1,.2.29A22.25,22.25,0,0,0,428.85,8,.25.25,0,0,1,428.6,8.21Z" transform="translate(-126.6 26.26)"/><path class="cls-5" d="M430.89-.43l-.11,0a.25.25,0,0,1-.11-.33A21.93,21.93,0,0,1,450.34-12.9a23,23,0,0,1,4,.35.26.26,0,0,1,.2.29.25.25,0,0,1-.29.2,22,22,0,0,0-3.89-.34A21.42,21.42,0,0,0,431.12-.57.27.27,0,0,1,430.89-.43Z" transform="translate(-126.6 26.26)"/><circle class="cls-5" cx="324.26" cy="35.89" r="19.96"/><path class="cls-4" d="M456.71,1.74c0,3.5-2.84,7.27-6.33,7.27S444,5.24,444,1.74a6.35,6.35,0,0,1,12.67,0Z" transform="translate(-126.6 26.26)"/><path class="cls-4" d="M442.52,22.48H458a3.75,3.75,0,0,0,3.56-2.6l.83-2.6a3.73,3.73,0,0,0-2.26-4.65c-6.29-2.3-12.79-2-19.46.21a3.72,3.72,0,0,0-2.38,4.51l.64,2.37A3.74,3.74,0,0,0,442.52,22.48Z" transform="translate(-126.6 26.26)"/><circle class="cls-4" cx="187.5" cy="12.09" r="24.4" transform="translate(33.61 224.25) rotate(-85.34)"/><circle class="cls-4" cx="187.5" cy="12.09" r="23.59" transform="matrix(0.51, -0.86, 0.86, 0.51, -45.35, 193.31)"/><path class="cls-5" d="M165.76,11.19h0a.26.26,0,0,1-.23-.27,21.4,21.4,0,0,1,.32-2.76.24.24,0,0,1,.29-.2.25.25,0,0,1,.2.29A20.1,20.1,0,0,0,166,11,.26.26,0,0,1,165.76,11.19Z" transform="translate(-126.6 26.26)"/><path class="cls-5" d="M168.05,2.54l-.11,0a.25.25,0,0,1-.11-.34A22,22,0,0,1,191.47-9.57a.24.24,0,0,1,.2.29.25.25,0,0,1-.29.2,21.87,21.87,0,0,0-3.88-.35A21.44,21.44,0,0,0,168.27,2.41.25.25,0,0,1,168.05,2.54Z" transform="translate(-126.6 26.26)"/><circle class="cls-5" cx="188.01" cy="12.61" r="19.96" transform="translate(-80.44 162.9) rotate(-45)"/><path class="cls-4" d="M193.87,4.71c0,3.5-2.84,7.28-6.34,7.28s-6.33-3.78-6.33-7.28a6.35,6.35,0,0,1,12.67,0Z" transform="translate(-126.6 26.26)"/><path class="cls-4" d="M179.68,25.45h15.45a3.75,3.75,0,0,0,3.57-2.6l.83-2.6a3.73,3.73,0,0,0-2.26-4.65c-6.29-2.3-12.8-2-19.46.21a3.73,3.73,0,0,0-2.39,4.52l.64,2.36A3.76,3.76,0,0,0,179.68,25.45Z" transform="translate(-126.6 26.26)"/><circle class="cls-6" cx="450.2" cy="204.79" r="30.97" transform="translate(71.08 656.32) rotate(-83.76)"/><circle class="cls-7" cx="450.2" cy="204.79" r="29.94" transform="translate(6.07 610.25) rotate(-74.52)"/><path class="cls-8" d="M425.51,192.68l-.15,0a.33.33,0,0,1-.14-.44,27.85,27.85,0,0,1,25-15.39,28.32,28.32,0,0,1,5.05.46.33.33,0,1,1-.12.64,27.9,27.9,0,0,0-4.93-.44,27.19,27.19,0,0,0-24.39,15A.33.33,0,0,1,425.51,192.68Z" transform="translate(-126.6 26.26)"/><circle class="cls-8" cx="450.86" cy="205.45" r="25.34" transform="translate(-139.81 405.24) rotate(-45)"/><path class="cls-7" d="M448.37,224.29v-2.76a22.5,22.5,0,0,1-7.74-1.68,1.58,1.58,0,0,1-.88-1.88l.7-2.57a1.61,1.61,0,0,1,2.18-1.05,18.71,18.71,0,0,0,7.15,1.5c2.77,0,4.83-.94,4.83-2.86,0-1.74-1.59-2.77-5.44-3.8-5.49-1.5-9.43-3.9-9.43-8.73,0-4.36,3.19-7.7,8.72-8.59v-2.75a1.61,1.61,0,0,1,1.61-1.61h1.62a1.61,1.61,0,0,1,1.61,1.61v2.47a20.62,20.62,0,0,1,6.13,1.1,1.6,1.6,0,0,1,1,1.93l-.65,2.38a1.59,1.59,0,0,1-2.11,1.08,16.68,16.68,0,0,0-6-1.09c-3.28,0-4.22,1.36-4.22,2.58,0,1.5,2,2.53,6.24,3.85,6.1,1.83,8.64,4.36,8.64,8.91,0,4.18-3.1,7.93-9.11,8.87v3.09a1.6,1.6,0,0,1-1.6,1.6H450A1.61,1.61,0,0,1,448.37,224.29Z" transform="translate(-126.6 26.26)"/></g></g></g></svg>