<svg xmlns="http://www.w3.org/2000/svg" xmlns:xlink="http://www.w3.org/1999/xlink" viewBox="0 0 1168 1034"><defs><style>.cls-1{fill:none;}.cls-10,.cls-13,.cls-2{fill:#fff;}.cls-3,.cls-4,.cls-5{fill:#d6dbe2;}.cls-3{opacity:0.6;}.cls-4{opacity:0.53;}.cls-6{fill:#3a3837;}.cls-7{fill:#585553;}.cls-8{fill:#ba8335;}.cls-9{fill:#d09a3f;}.cls-10{opacity:0.65;}.cls-11{fill:#f4d19d;}.cls-12{clip-path:url(#clip-path);}.cls-13{opacity:0.66;}</style><clipPath id="clip-path"><path id="SVGID" class="cls-1" d="M284.92,613.54c-.91-.34-3.39-2.11-7.5-7.81a156.68,156.68,0,0,1-20.84-44c-1.81-6.78-1.61-9.82-1.29-10.74.91.34,3.39,2.11,7.49,7.8,4,5.5,16.42,9.17,20.29,17.34s-1.19,20.13.56,26.68C285.43,609.57,285.24,612.62,284.92,613.54Z"/></clipPath></defs><g id="Layer_2" data-name="Layer 2"><g id="Layer_1-2" data-name="Layer 1"><path class="cls-2" d="M1098.78,544.1c-18.8-20.38-41-40.26-46.84-67.93-10-47.89,32.87-88.72,46.92-135.48,9.71-32.34,4.7-69.16-13.25-97.38s-48.48-47.25-80.73-50.35c-55.5-5.33-109.81,33.81-164.48,22.48C796.63,206.36,762,166.33,717.6,162c-52.28-5-95.67,40.12-145.6,57.13-59.72,20.34-124.47-.92-183.19-24.25s-120.5-49.36-182.39-38.19C137.52,169.16,79.76,232,70.54,304.51,61.41,376.39,138,434.09,72.81,520.4c-20.38,27-33.93,64.52-24.92,97.58,8.75,32.13,46,52.44,46.26,85.85.21,26.37-23.55,47.35-25.46,73.65-1.64,22.57,13.87,43.43,32.93,54.13s41.18,13.31,62.68,15.74h0a4.78,4.78,0,0,0-.87,5,4.9,4.9,0,0,0,4.11,3c105.16,9.17,210.93,7,316.46,4.77l514.4-10.76c17.62-.37,35.67-.82,52.09-7.53s31.15-21.06,33.65-39.32c4.25-31.08-26.78-58-23.91-89.29,3.66-39.91,57.35-55.3,67.56-93.94C1135,592,1117.58,564.48,1098.78,544.1Z"/><path class="cls-3" d="M990.45,381.3h57.64a7.17,7.17,0,0,0,7.17-7.17h0a7.17,7.17,0,0,0-7.17-7.17H990.45a7.17,7.17,0,0,0-7.16,7.17h0A7.17,7.17,0,0,0,990.45,381.3Z"/><path class="cls-3" d="M871.32,407.83h185.25a7.17,7.17,0,0,0,7.17-7.16h0a7.17,7.17,0,0,0-7.17-7.17H871.32a7.17,7.17,0,0,0-7.17,7.17h0A7.17,7.17,0,0,0,871.32,407.83Z"/><path class="cls-4" d="M849.06,435.91h185.25a7.17,7.17,0,0,0,7.17-7.17h0a7.17,7.17,0,0,0-7.17-7.16H849.06a7.17,7.17,0,0,0-7.17,7.16h0A7.17,7.17,0,0,0,849.06,435.91Z"/><path class="cls-4" d="M901.74,492.07h132.57a7.17,7.17,0,0,0,7.17-7.17h0a7.16,7.16,0,0,0-7.17-7.16H901.74a7.16,7.16,0,0,0-7.17,7.16h0A7.17,7.17,0,0,0,901.74,492.07Z"/><path class="cls-3" d="M828.28,464h185.25a7.17,7.17,0,0,0,7.17-7.17h0a7.17,7.17,0,0,0-7.17-7.16H828.28a7.17,7.17,0,0,0-7.17,7.16h0A7.17,7.17,0,0,0,828.28,464Z"/><path class="cls-5" d="M145.52,350.19H88.85a7,7,0,0,1-7-7h0a7,7,0,0,1,7-7h56.67a7,7,0,0,1,7,7h0A7,7,0,0,1,145.52,350.19Z"/><path class="cls-5" d="M285.5,387.33H103.34a7,7,0,0,1-7-7.05h0a7,7,0,0,1,7-7H285.5a7,7,0,0,1,7,7h0A7,7,0,0,1,285.5,387.33Z"/><path class="cls-5" d="M307.38,414.94H125.23a7,7,0,0,1-7-7.05h0a7,7,0,0,1,7-7H307.38a7,7,0,0,1,7.05,7h0A7,7,0,0,1,307.38,414.94Z"/><path class="cls-5" d="M255.58,470.16H125.23a7,7,0,0,1-7-7h0a7,7,0,0,1,7-7.05H255.58a7,7,0,0,1,7,7.05h0A7,7,0,0,1,255.58,470.16Z"/><path class="cls-5" d="M327.81,442.55H145.66a7,7,0,0,1-7-7h0a7,7,0,0,1,7-7.05H327.81a7,7,0,0,1,7.05,7.05h0A7,7,0,0,1,327.81,442.55Z"/><path class="cls-5" d="M809.47,864.62s24-26.94,20.11-52.41-23.39-22.43-32.06-7.37-16.46,13-11.31-1.17,11.61-23.37.93-37.47-11.78-20.08-5.78-32.66,13.53-30.4-10.33-36.76S723.39,710,729,735.53s8.91,28.35,1.25,37.83-4.47,13.36-3.39,19.52-10.62,7.61-10.37-1.07,15.14-29.18,5-38.74-30.1-9.67-35.2,12.44,11.25,32,10.43,40-9.59-4.13-17.24,4,2.65,14.56,10.23,19,19,12.34,8.13,18.08-21.17.25-14.51,18Z"/><path class="cls-2" d="M760.11,715.22a12.64,12.64,0,0,0-2.14,1.34,15.34,15.34,0,0,0-1.85,1.65,18.3,18.3,0,0,0-2.93,3.89,22.56,22.56,0,0,0-2.74,9.09c-.05.39-.06.79-.08,1.18s0,.79,0,1.18v1.18l.07,1.18,0,.58.07.59.13,1.17c.13.77.22,1.56.39,2.32s.31,1.54.52,2.3l.29,1.14.31,1.1,1.23,4.4c1.62,5.87,3.18,11.73,4.41,17.63a76.92,76.92,0,0,1,1.84,17.73,37.67,37.67,0,0,1-.36,4.38,30.85,30.85,0,0,1-.9,4.27,26.06,26.06,0,0,1-1.56,4.07,28.41,28.41,0,0,0-1.7,4.54,65.66,65.66,0,0,0-1.68,9.16c-.36,3.05-.63,6.08-.86,9.11-.46,6.05-.86,12.09-1.84,18-.12.74-.25,1.49-.41,2.22s-.32,1.48-.49,2.21-.38,1.46-.57,2.19c-.11.36-.23.72-.34,1.08s-.22.72-.37,1.07l-.4,1.07c-.13.35-.3.69-.46,1-.29.7-.67,1.36-1,2a18.79,18.79,0,0,1-2.81,3.71l.27.24a19.23,19.23,0,0,0,3.21-3.61,26.6,26.6,0,0,0,2.27-4.15,47.78,47.78,0,0,0,2.81-8.84,178.75,178.75,0,0,0,2.78-18.1c.37-3,.71-6,1.17-9a64.63,64.63,0,0,1,1.89-8.74,28.5,28.5,0,0,1,1.62-4,28.45,28.45,0,0,0,1.82-4.5,33,33,0,0,0,1.08-4.65,41.23,41.23,0,0,0,.48-4.68,78.5,78.5,0,0,0-1.74-18.45,179.1,179.1,0,0,0-4.62-17.85c-.45-1.47-.91-2.93-1.39-4.39l-.35-1.09-.33-1.07c-.23-.71-.41-1.42-.6-2.14s-.32-1.44-.49-2.16l-.19-1.08c-.07-.37-.13-.73-.17-1.09a30.46,30.46,0,0,1-.29-4.37,21.88,21.88,0,0,1,.41-4.35,21.05,21.05,0,0,1,1.25-4.22,19.87,19.87,0,0,1,1-2,15.47,15.47,0,0,1,1.24-1.9,15,15,0,0,1,3.31-3.3Z"/><path class="cls-2" d="M811.23,806.48a131.42,131.42,0,0,1-3,14.16c-.63,2.33-1.31,4.65-2.08,6.94-.18.58-.39,1.15-.59,1.72s-.41,1.14-.62,1.7c-.4,1.14-.86,2.27-1.31,3.39s-.95,2.23-1.47,3.33-1,2.2-1.58,3.29c-1.13,2.16-2.32,4.29-3.65,6.36a69.55,69.55,0,0,1-4.33,6,68.42,68.42,0,0,1-5.14,5.53l.26.25a45.25,45.25,0,0,0,5.86-5.08,58.88,58.88,0,0,0,4.85-5.9,66.51,66.51,0,0,0,3.92-6.43c.56-1.11,1.14-2.21,1.65-3.34s1-2.27,1.48-3.41.9-2.3,1.3-3.46c.21-.58.4-1.16.59-1.74s.38-1.17.55-1.76c.72-2.34,1.32-4.71,1.83-7.09a79.27,79.27,0,0,0,1.84-14.43Z"/><path class="cls-5" d="M405.05,864.62s-28.61-32.1-24-62.44,27.87-26.72,38.2-8.78,19.61,15.48,13.47-1.39-13.82-27.85-1.11-44.64,14-23.93,6.89-38.91-16.11-36.22,12.32-43.79,56.75,15.69,50.12,46.16-10.62,33.78-1.48,45.06,5.32,15.92,4,23.26,12.65,9.07,12.36-1.28-18.05-34.76-5.93-46.15,35.85-11.51,41.93,14.82-13.4,38.18-12.43,47.71S550.89,789.33,560,799s-3.15,17.34-12.18,22.6-22.64,14.69-9.69,21.54,25.22.3,17.28,21.44Z"/><path class="cls-2" d="M463.86,686.63a15.39,15.39,0,0,1,2.55,1.59,18.84,18.84,0,0,1,2.21,2,22,22,0,0,1,3.49,4.64,26.88,26.88,0,0,1,3.25,10.83c.06.46.08.93.11,1.4s0,.94,0,1.41v1.4l-.08,1.4,0,.71-.08.69-.16,1.4c-.15.92-.26,1.85-.46,2.76s-.38,1.84-.62,2.74l-.35,1.36-.37,1.31-1.46,5.24c-1.93,7-3.79,14-5.26,21a92.57,92.57,0,0,0-2.19,21.13,43.07,43.07,0,0,0,.44,5.21,33.59,33.59,0,0,0,1.07,5.09,29.35,29.35,0,0,0,1.85,4.85,34.51,34.51,0,0,1,2,5.41,79.26,79.26,0,0,1,2,10.91c.43,3.63.76,7.25,1,10.86.55,7.21,1,14.4,2.19,21.49.15.89.3,1.77.49,2.65s.38,1.75.58,2.63.46,1.74.68,2.61c.13.43.28.85.41,1.28s.27.86.44,1.28l.48,1.27c.16.42.36.82.54,1.24.35.84.8,1.63,1.22,2.44a22.42,22.42,0,0,0,3.35,4.41l-.33.28a23.49,23.49,0,0,1-3.82-4.29,32.12,32.12,0,0,1-2.7-4.94A57.88,57.88,0,0,1,473,833.75a213,213,0,0,1-3.31-21.57c-.45-3.58-.85-7.17-1.4-10.71a75.09,75.09,0,0,0-2.25-10.42,32.1,32.1,0,0,0-1.93-4.82,34.88,34.88,0,0,1-2.17-5.37,39.53,39.53,0,0,1-1.28-5.53,50.26,50.26,0,0,1-.58-5.58,93.39,93.39,0,0,1,2.08-22,214.57,214.57,0,0,1,5.5-21.26q.81-2.62,1.65-5.24l.43-1.3.39-1.27c.28-.84.48-1.7.71-2.55s.39-1.71.59-2.57l.23-1.29c.07-.43.14-.87.19-1.3a36.4,36.4,0,0,0,.36-5.21,27.37,27.37,0,0,0-.49-5.18,25.91,25.91,0,0,0-1.5-5,23.2,23.2,0,0,0-1.2-2.39,20,20,0,0,0-1.48-2.27,18.36,18.36,0,0,0-3.94-3.93Z"/><path class="cls-2" d="M403,795.36a154.62,154.62,0,0,0,3.55,16.87q1.11,4.15,2.47,8.27c.22.68.47,1.36.71,2s.48,1.36.73,2c.49,1.36,1,2.69,1.57,4s1.12,2.66,1.75,4,1.24,2.62,1.88,3.92c1.35,2.57,2.77,5.11,4.35,7.57a71.45,71.45,0,0,0,11.28,13.74l-.31.3a53.16,53.16,0,0,1-7-6.05,66.28,66.28,0,0,1-5.77-7,73.56,73.56,0,0,1-4.67-7.66c-.68-1.32-1.37-2.63-2-4s-1.18-2.7-1.75-4.06-1.07-2.74-1.55-4.12c-.25-.69-.48-1.38-.7-2.08s-.46-1.39-.66-2.09c-.86-2.79-1.57-5.62-2.19-8.45a95.26,95.26,0,0,1-2.19-17.2Z"/><polygon class="cls-6" points="535.42 700.56 520.11 837.86 697.73 837.86 674.59 700.56 535.42 700.56"/><path class="cls-6" d="M237.06,362.28V676.73a47.69,47.69,0,0,0,46.47,47.69c114.86,3,516.56,10.15,625.9,8.53A35.09,35.09,0,0,0,944,698.85c2.11-73.05,5.54-248.72-7.13-330.27A36.13,36.13,0,0,0,902.31,338c-96.24-3.07-522.07-12.85-631.36-10.4A34.68,34.68,0,0,0,237.06,362.28Z"/><path class="cls-7" d="M256.79,360.74V659.5A27.64,27.64,0,0,0,284,687.14l609.69,7.53a26.9,26.9,0,0,0,27.3-26.8l1-296.08a19.67,19.67,0,0,0-19.19-19.74L278.62,339.44A21.3,21.3,0,0,0,256.79,360.74Z"/><path class="cls-5" d="M925.59,707h0l-668.8-11.39a.94.94,0,0,1,0-1.87h0l668.8,11.39a.94.94,0,0,1,.92,1A.93.93,0,0,1,925.59,707Z"/><path class="cls-6" d="M736,866H476c-7.06,0-12.36-5-11-10.43l3.34-13.19c1-4,5.37-6.88,10.55-7l250.6-7.82c5.42-.17,10.22,2.71,11.4,6.83l6,21C748.49,860.77,743.16,866,736,866Z"/><path class="cls-5" d="M616,839a.94.94,0,1,1,0-1.87l10.74-.16a.94.94,0,1,1,0,1.88L616,839Z"/><path class="cls-5" d="M474.66,858.77h-.15a.94.94,0,0,1-.78-1.07l1.53-9.6A10.8,10.8,0,0,1,485.78,839l113.9-1.66a1,1,0,0,1,1,.92.93.93,0,0,1-.92,1l-113.9,1.67a8.93,8.93,0,0,0-8.7,7.52l-1.53,9.6A.93.93,0,0,1,474.66,858.77Z"/><path class="cls-5" d="M477.75,467.42a12.56,12.56,0,1,0-8.69-4.1A12.5,12.5,0,0,0,477.75,467.42Z"/><path class="cls-5" d="M546.93,449l-3.09-15.27a1.06,1.06,0,0,0-.9-.84l-12.86-1.72a56.42,56.42,0,0,0-10.24-15.2l3.27-12.57a1.08,1.08,0,0,0-.45-1.16l-13-8.61a1.07,1.07,0,0,0-1.24,0l-10.32,7.89a56.28,56.28,0,0,0-18-3.53l-6.58-11.19a1.06,1.06,0,0,0-1.13-.5l-15.26,3.08a1.06,1.06,0,0,0-.85.9l-1.72,12.87a56.77,56.77,0,0,0-15.2,10.23l-12.57-3.26a1.07,1.07,0,0,0-1.16.44l-8.61,13a1.07,1.07,0,0,0,0,1.23L425,435.1a56.33,56.33,0,0,0-3.53,18l-11.19,6.58a1.06,1.06,0,0,0-.5,1.13l3.08,15.27a1.07,1.07,0,0,0,.91.84l12.86,1.72a56.46,56.46,0,0,0,10.23,15.2l-3.26,12.57a1.07,1.07,0,0,0,.44,1.16l13,8.61a1.05,1.05,0,0,0,1.24,0l10.31-7.88a56.66,56.66,0,0,0,18,3.52L483.13,523a1.08,1.08,0,0,0,1.13.51l15.27-3.09a1.06,1.06,0,0,0,.85-.9l1.71-12.87a56.21,56.21,0,0,0,15.21-10.23l12.57,3.26a1,1,0,0,0,1.15-.44l8.62-13a1.08,1.08,0,0,0,0-1.24l-7.89-10.32a56.55,56.55,0,0,0,3.53-18l11.18-6.58A1.05,1.05,0,0,0,546.93,449Zm-36,27.14a38.88,38.88,0,0,1-45.34,15.15l.86-2.4A36.31,36.31,0,1,0,443,461.81q.22,1.1.51,2.16a34.86,34.86,0,0,0,1.21,3.75l0,.08c.07.17.13.33.2.49l.37.9-2.34,1a38.94,38.94,0,0,1,16.87-49.64c1.14-.62,2.31-1.2,3.52-1.71a38.87,38.87,0,0,1,47.6,57.25Zm-47.68-21.95a15.11,15.11,0,0,1,26.28-9.44,15.11,15.11,0,1,1-26.28,9.44Z"/><path class="cls-5" d="M373,536.41a7.64,7.64,0,1,0-4.18-4.08A7.57,7.57,0,0,0,373,536.41Z"/><path class="cls-5" d="M421.65,529.48l-7.79-3.91a38,38,0,0,0-3.17-11.89l4.83-7.27a.71.71,0,0,0,0-.83l-6.35-8.31a.71.71,0,0,0-.8-.25l-8.28,2.75a37.83,37.83,0,0,0-10.64-6.18l-1.73-8.54a.71.71,0,0,0-.6-.57l-10.37-1.39a.73.73,0,0,0-.74.39l-3.91,7.79a38,38,0,0,0-11.89,3.17l-7.27-4.82a.72.72,0,0,0-.83,0L343.77,496a.71.71,0,0,0-.25.79l2.75,8.28a38,38,0,0,0-6.18,10.65l-8.54,1.72a.72.72,0,0,0-.57.61l-1.39,10.37a.71.71,0,0,0,.39.73l7.8,3.91a37.88,37.88,0,0,0,3.16,11.9l-4.82,7.26a.71.71,0,0,0,0,.83l6.35,8.32a.7.7,0,0,0,.79.24l8.28-2.75A38,38,0,0,0,362.22,565l1.72,8.55a.71.71,0,0,0,.61.56l10.37,1.39a.73.73,0,0,0,.74-.39l3.9-7.79a38.09,38.09,0,0,0,11.9-3.17l7.26,4.83a.74.74,0,0,0,.84,0l8.31-6.35a.72.72,0,0,0,.24-.8l-2.74-8.28a37.8,37.8,0,0,0,6.17-10.64l8.55-1.73a.71.71,0,0,0,.57-.61L422,530.21A.71.71,0,0,0,421.65,529.48Zm-19,3.28a26.89,26.89,0,0,1-43.4,17.49l2.06-2.59a23.59,23.59,0,1,0-8.7-21.59,24.46,24.46,0,0,0-.16,4.76,2.45,2.45,0,0,1,0,.27l-3.29.26a26.71,26.71,0,0,1,.16-5.72l.06-.46a26.94,26.94,0,0,1,22-22.49c.89-.15,1.79-.26,2.71-.33h0a26.62,26.62,0,0,1,5.41.18,26.93,26.93,0,0,1,22.94,22.08A26.37,26.37,0,0,1,402.66,532.76Zm-37-7.5A10.94,10.94,0,0,1,386,533.38a10.94,10.94,0,0,1-20.22.25A10.85,10.85,0,0,1,365.66,525.26Z"/><path class="cls-5" d="M854.13,471.91,852,461.21a.74.74,0,0,0-.63-.59l-9-1.2a39.68,39.68,0,0,0-7.17-10.66l2.29-8.8a.74.74,0,0,0-.31-.81l-9.09-6a.77.77,0,0,0-.87,0l-7.23,5.53a39.52,39.52,0,0,0-12.6-2.47l-4.6-7.84a.76.76,0,0,0-.8-.36l-10.69,2.17a.76.76,0,0,0-.6.63l-1.2,9A39.79,39.79,0,0,0,778.8,447L770,444.69a.76.76,0,0,0-.81.31l-6,9.1a.72.72,0,0,0,0,.86l5.52,7.23a39.79,39.79,0,0,0-2.47,12.6l-7.84,4.61a.75.75,0,0,0-.35.79l2.16,10.7a.74.74,0,0,0,.63.59l9,1.2A39.24,39.24,0,0,0,777,503.33l-2.29,8.81a.74.74,0,0,0,.31.81l9.09,6a.77.77,0,0,0,.87,0l7.23-5.53a39.52,39.52,0,0,0,12.6,2.47l4.6,7.84a.74.74,0,0,0,.8.35l10.69-2.16a.76.76,0,0,0,.6-.63l1.2-9a39.79,39.79,0,0,0,10.65-7.17l8.81,2.28a.75.75,0,0,0,.81-.31l6-9.09a.72.72,0,0,0,0-.86l-5.52-7.23a39.79,39.79,0,0,0,2.47-12.6l7.84-4.61A.75.75,0,0,0,854.13,471.91ZM829.6,491.38a28,28,0,0,1-32.72,10.94l1.15-3.25a24.61,24.61,0,1,0-15.92-18.33,25.11,25.11,0,0,0,1.46,4.75c0,.08.07.17.11.25l-3.16,1.38a28.81,28.81,0,0,1-1.79-5.7l-.09-.46a28.1,28.1,0,0,1,14.06-29.67c.83-.46,1.68-.87,2.56-1.25h0a28.05,28.05,0,0,1,34.32,41.35ZM794.69,475.5a11.3,11.3,0,0,1,3.72-7.9,11.75,11.75,0,0,1,2.18-1.56,11.42,11.42,0,1,1-5.9,9.46Z"/><path class="cls-5" d="M805.7,484a8,8,0,1,0-5.51-2.6A7.93,7.93,0,0,0,805.7,484Z"/><path class="cls-5" d="M676.58,571.36a16.4,16.4,0,0,0,7.84,1.93h0a16.19,16.19,0,1,0-7.84-1.93Z"/><path class="cls-5" d="M771,567.68l-13.84-9.15a72.56,72.56,0,0,0-3.3-23.19l10.76-12.65a1.36,1.36,0,0,0,.13-1.57L754.64,504a1.34,1.34,0,0,0-1.44-.64l-16.27,3.32a72.53,72.53,0,0,0-18.72-14.08L716.88,476a1.37,1.37,0,0,0-1-1.21l-19.29-5a1.37,1.37,0,0,0-1.48.56L686,484.28a72.07,72.07,0,0,0-23.2,3.3l-12.64-10.76a1.34,1.34,0,0,0-1.57-.14l-17.15,10.13a1.37,1.37,0,0,0-.64,1.45l3.32,16.26A72.35,72.35,0,0,0,620,523.25l-16.53,1.33a1.36,1.36,0,0,0-1.22,1l-5,19.28a1.39,1.39,0,0,0,.57,1.48l13.84,9.14a72.62,72.62,0,0,0,3.3,23.2l-10.76,12.64a1.37,1.37,0,0,0-.13,1.58l10.13,17.14a1.34,1.34,0,0,0,1.44.64l16.27-3.32a72.3,72.3,0,0,0,18.72,14.08L652,638a1.38,1.38,0,0,0,1,1.21l19.29,5a1.39,1.39,0,0,0,1.48-.57l9.14-13.84a72.34,72.34,0,0,0,23.2-3.3l12.64,10.76a1.36,1.36,0,0,0,1.57.13l17.15-10.13a1.34,1.34,0,0,0,.64-1.44l-3.32-16.27a72.3,72.3,0,0,0,14.08-18.72l16.53-1.33a1.39,1.39,0,0,0,1.22-1l5-19.29A1.37,1.37,0,0,0,771,567.68ZM667.79,547.94a19,19,0,0,1,34.83,3.72,17.59,17.59,0,0,1-1.54,13.91c-3.32,6.1-9.71,9.36-16.66,9.36h0c-3.15,0-6.28-.28-9.06-1.79a18.36,18.36,0,0,1-7.57-25.2Zm64.6,21h0s.37.41.37.42l.38.35v0h0l-.39,0-.2,0-.1-.42-.07-.44h0s0,.46,0,.47v.23s0,.17,0,.21a.43.43,0,0,1,0,.11v0a1.33,1.33,0,0,1,0,.19v0s-.1.08-.11.12l-.09,0h.08s.51,0,.5,0l.51,0h0C727.68,591.82,706.88,606,684.66,606h0c-4.13,0-8.27,0-12.31-1.64h0c-21.81-4.91-37-24.85-37.05-47.34a48,48,0,0,1,1.57-12.13,48.92,48.92,0,0,1,13.08-22.69,1.27,1.27,0,0,1,1.81.06,1.33,1.33,0,0,1,.36.92,1.27,1.27,0,0,1-.38.92,46.77,46.77,0,0,0-12.4,21.61,45.42,45.42,0,0,0-1.48,11.45c0,21.33,14.45,40.11,35.13,45h0l.53.25a48.36,48.36,0,0,0,12.17,1.79v0c21.82,0,39.29-14.36,44.69-34.91,0,0-.24,0-.24,0l-.12,0-.06-.13a1.31,1.31,0,0,1-.05-.15h0l.26.1s.26,0,.26,0v0h-.13l.13,0h0a42.37,42.37,0,0,0,1.24-11.69,46.85,46.85,0,0,0-35.26-45.26,45.49,45.49,0,0,0-9.67-1.45,1.13,1.13,0,0,1-1.05-1.27v-.05c.55-.71.38-1.25,1.09-1.23A49.35,49.35,0,0,1,734,557,45.35,45.35,0,0,1,732.39,568.93Z"/><circle class="cls-8" cx="632.08" cy="716.74" r="46.68" transform="translate(-171.82 1233.45) rotate(-81.32)"/><circle class="cls-9" cx="632.08" cy="716.74" r="45.13" transform="translate(-210.71 1167.23) rotate(-76.72)"/><path class="cls-10" d="M594.87,698.49a.59.59,0,0,1-.23,0,.51.51,0,0,1-.22-.67,42,42,0,0,1,37.66-23.18,42.87,42.87,0,0,1,7.6.68.5.5,0,0,1-.18,1,41.21,41.21,0,0,0-44.19,22A.5.5,0,0,1,594.87,698.49Z"/><circle class="cls-10" cx="633.06" cy="717.72" r="38.19" transform="translate(-226.47 296.9) rotate(-22.5)"/><path class="cls-9" d="M629.31,746.12V742a33.67,33.67,0,0,1-11.66-2.53,2.41,2.41,0,0,1-1.33-2.84l1.06-3.87a2.42,2.42,0,0,1,3.29-1.58,28.21,28.21,0,0,0,10.76,2.26c4.18,0,7.29-1.41,7.29-4.31,0-2.62-2.41-4.17-8.21-5.73-8.27-2.26-14.21-5.87-14.21-13.15,0-6.58,4.81-11.6,13.15-12.94v-4.16a2.43,2.43,0,0,1,2.42-2.42h2.45a2.43,2.43,0,0,1,2.42,2.42v3.73A31.07,31.07,0,0,1,646,698.5a2.42,2.42,0,0,1,1.5,2.91l-1,3.58a2.41,2.41,0,0,1-3.18,1.63,25.43,25.43,0,0,0-9.07-1.64c-5,0-6.36,2-6.36,3.89,0,2.26,3,3.81,9.4,5.8,9.2,2.75,13,6.57,13,13.43,0,6.29-4.66,11.95-13.71,13.37v4.65a2.43,2.43,0,0,1-2.43,2.42h-2.44A2.43,2.43,0,0,1,629.31,746.12Z"/><circle class="cls-8" cx="742.83" cy="648.96" r="39.57" transform="translate(-16.74 1278.25) rotate(-80.78)"/><circle class="cls-9" cx="742.83" cy="648.96" r="38.25" transform="translate(-141 1086.9) rotate(-67.5)"/><path class="cls-10" d="M711.29,633.49a.41.41,0,0,1-.19,0,.43.43,0,0,1-.19-.57,35.59,35.59,0,0,1,31.92-19.65,36.46,36.46,0,0,1,6.44.58.42.42,0,0,1-.15.83,34.92,34.92,0,0,0-37.46,18.62A.4.4,0,0,1,711.29,633.49Z"/><circle class="cls-10" cx="743.66" cy="649.79" r="32.37" transform="translate(-109.46 152.36) rotate(-10.9)"/><path class="cls-9" d="M740.48,673.86v-3.52a28.77,28.77,0,0,1-9.88-2.14,2,2,0,0,1-1.12-2.41l.89-3.28a2.05,2.05,0,0,1,2.79-1.34,23.9,23.9,0,0,0,9.12,1.92c3.54,0,6.18-1.2,6.18-3.66,0-2.22-2-3.54-7-4.85-7-1.92-12-5-12-11.15,0-5.58,4.08-9.83,11.15-11v-3.52a2.06,2.06,0,0,1,2.06-2.06h2.07a2.05,2.05,0,0,1,2,2.06v3.16a26,26,0,0,1,7.83,1.4,2,2,0,0,1,1.28,2.47l-.83,3a2.05,2.05,0,0,1-2.7,1.39,21.17,21.17,0,0,0-7.68-1.4c-4.2,0-5.39,1.74-5.39,3.3,0,1.92,2.51,3.23,8,4.91,7.79,2.34,11,5.58,11,11.39,0,5.34-4,10.13-11.63,11.33v3.94a2,2,0,0,1-2,2h-2.07A2,2,0,0,1,740.48,673.86Z"/><circle class="cls-8" cx="558.44" cy="671.61" r="28.05" transform="translate(-156.94 1172.76) rotate(-85.27)"/><circle class="cls-9" cx="558.44" cy="671.61" r="27.11" transform="translate(-193.95 1115.26) rotate(-80.78)"/><path class="cls-10" d="M536.09,660.65a.23.23,0,0,1-.14,0,.3.3,0,0,1-.13-.4,25.23,25.23,0,0,1,22.62-13.93,25.72,25.72,0,0,1,4.57.41.3.3,0,0,1,.24.35.29.29,0,0,1-.34.24,24.8,24.8,0,0,0-26.56,13.2A.29.29,0,0,1,536.09,660.65Z"/><circle class="cls-10" cx="559.03" cy="672.2" r="22.95"/><path class="cls-9" d="M556.78,689.26v-2.5a20.27,20.27,0,0,1-7-1.51,1.44,1.44,0,0,1-.8-1.71l.63-2.33a1.46,1.46,0,0,1,2-1,16.88,16.88,0,0,0,6.47,1.36c2.5,0,4.37-.85,4.37-2.59,0-1.57-1.44-2.51-4.93-3.44-5-1.36-8.54-3.53-8.54-7.9,0-4,2.89-7,7.91-7.78v-2.5a1.45,1.45,0,0,1,1.45-1.45h1.47a1.45,1.45,0,0,1,1.45,1.45v2.25a18.39,18.39,0,0,1,5.56,1,1.45,1.45,0,0,1,.9,1.75l-.58,2.15a1.45,1.45,0,0,1-1.92,1,15.22,15.22,0,0,0-5.44-1c-3,0-3.83,1.23-3.83,2.34,0,1.36,1.79,2.29,5.65,3.48,5.53,1.66,7.82,4,7.82,8.08,0,3.78-2.8,7.18-8.24,8v2.79a1.46,1.46,0,0,1-1.46,1.46h-1.46A1.46,1.46,0,0,1,556.78,689.26Z"/><circle class="cls-8" cx="728.74" cy="742.93" r="25.47" transform="translate(-46.46 1437.25) rotate(-87.4)"/><circle class="cls-9" cx="728.74" cy="742.93" r="24.63" transform="translate(-97.67 1375.44) rotate(-82.98)"/><path class="cls-10" d="M708.43,733l-.12,0a.26.26,0,0,1-.12-.36,23.07,23.07,0,0,1,24.7-12.28.27.27,0,0,1-.1.54,22,22,0,0,0-4-.37,22.38,22.38,0,0,0-20.07,12.35A.26.26,0,0,1,708.43,733Z"/><circle class="cls-10" cx="729.27" cy="743.47" r="20.84" transform="translate(-161.86 1282.42) rotate(-76.72)"/><path class="cls-9" d="M727.23,759V756.7a18.84,18.84,0,0,1-6.37-1.38,1.32,1.32,0,0,1-.72-1.55l.58-2.11a1.32,1.32,0,0,1,1.79-.87,15.37,15.37,0,0,0,5.88,1.24c2.27,0,4-.77,4-2.36,0-1.42-1.31-2.27-4.48-3.12-4.51-1.24-7.75-3.21-7.75-7.18,0-3.59,2.62-6.33,7.17-7.06V730a1.33,1.33,0,0,1,1.33-1.32H730a1.32,1.32,0,0,1,1.32,1.32v2a16.71,16.71,0,0,1,5,.9,1.32,1.32,0,0,1,.82,1.59l-.53,1.95a1.31,1.31,0,0,1-1.73.89,13.79,13.79,0,0,0-5-.9c-2.7,0-3.47,1.12-3.47,2.13,0,1.23,1.62,2.08,5.13,3.16,5,1.51,7.1,3.59,7.1,7.33,0,3.44-2.55,6.52-7.49,7.3V759a1.33,1.33,0,0,1-1.32,1.33h-1.33A1.33,1.33,0,0,1,727.23,759Z"/><path class="cls-9" d="M1096.92,867l-141-272a3.12,3.12,0,0,1,5.54-2.87l141,272a3.13,3.13,0,0,1-1.34,4.21,3.11,3.11,0,0,1-4.2-1.34Z"/><path class="cls-9" d="M1029.92,869.06l-120.54-277a3.12,3.12,0,1,1,5.72-2.49l120.54,277a3.11,3.11,0,0,1-1.61,4.11,3.18,3.18,0,0,1-1.25.26A3.13,3.13,0,0,1,1029.92,869.06Z"/><path class="cls-9" d="M935,644.82h48.89a2,2,0,0,0,0-3.9H935a1.95,1.95,0,1,0,0,3.9Z"/><path class="cls-9" d="M948.08,675.11H997a1.95,1.95,0,0,0,0-3.9h-48.9a1.95,1.95,0,0,0,0,3.9Z"/><path class="cls-9" d="M965.31,711.38h52a1.95,1.95,0,0,0,0-3.9h-52a1.95,1.95,0,1,0,0,3.9Z"/><path class="cls-9" d="M922,615.44h46.64a2,2,0,0,0,0-3.9H922a1.95,1.95,0,1,0,0,3.9Z"/><path class="cls-9" d="M982.47,753.11H1039a1.95,1.95,0,1,0,0-3.9H982.47a1.95,1.95,0,0,0,0,3.9Z"/><path class="cls-9" d="M995.75,785.48h60.61a1.95,1.95,0,1,0,0-3.9H995.75a1.95,1.95,0,0,0,0,3.9Z"/><path class="cls-6" d="M1007.67,746.12c6.24-5.43,19.65-9.78,19.65-9.78l8.07.17c2,2.31,3,6.77,3.37,9.57-1.52.91-4.37,1.71-9.59,2A78.59,78.59,0,0,1,1007.67,746.12Z"/><path class="cls-6" d="M1007.67,746.12a78.59,78.59,0,0,0,21.5,1.92c5.22-.25,8.07-1,9.59-2,0,.23.06.44.09.64a2.39,2.39,0,0,1-1.67,2.57c-7.38,2.26-23.59,1.53-29.91,1.14a1.66,1.66,0,0,1-1.19-2.71A15,15,0,0,1,1007.67,746.12Z"/><path class="cls-11" d="M1034.73,729.55V736a2.61,2.61,0,0,1-2.07,2.56,10,10,0,0,1-4.51.05,2.51,2.51,0,0,1-1.87-2.15l-.81-6.87Z"/><path class="cls-6" d="M993.93,696.67c2.5-5.57,1.79-8.08,6.74-7.52a6.29,6.29,0,0,1,1.51.33,4.43,4.43,0,0,1,0,2.9,54.84,54.84,0,0,1-8.68,15.83,5.46,5.46,0,0,1-4.18,2l-5.46.09A34.94,34.94,0,0,0,993.93,696.67Z"/><path class="cls-6" d="M983.51,702.08c4.2-3,5.76-15,5.76-15l6.47-3.29,4.87,3.53a4.44,4.44,0,0,1,1.57,2.17,6.29,6.29,0,0,0-1.51-.33c-4.95-.56-4.24,2-6.74,7.52a34.94,34.94,0,0,1-10.07,13.67l-3.75.06a2,2,0,0,1-1.64-3.24A24.2,24.2,0,0,1,983.51,702.08Z"/><path class="cls-11" d="M991.83,677.71l3.91,6.07a1.76,1.76,0,0,1-.4,2.34,5.78,5.78,0,0,1-6.07,1l-6.27-4.3Z"/><path class="cls-7" d="M1021.12,613.64s2.06,5.79,5,26.11,4.94,35.1,6.56,43.16c1.49,7.37,3.83,33.91,3.69,45.52a2.78,2.78,0,0,1-2.87,2.75l-7.68-.24a2.48,2.48,0,0,1-2.37-2.07c-2-12-16.08-73.61-24.55-91.35,0,0-22.54,6.37-28.16,8.93,0,0,7.27,2.91,22.15,30.81,0,0-6.43,5.11-11,6.17,0,0-32.57-27-36-29.84s-6.58-7.7,2.2-16.57,35.74-22.87,35.74-22.87Z"/><path class="cls-6" d="M1000.17,638.15a.33.33,0,0,0,.17,0l8-3.1a10.07,10.07,0,0,0,5.71-9,.39.39,0,1,0-.78,0,9.28,9.28,0,0,1-5.27,8.31l-8,3.1a.39.39,0,0,0,.17.74Z"/><path class="cls-11" d="M948.25,611.93s-8.46-6.41-12.31-5.2a16,16,0,0,0-6.7,4.81h8.52s2,3.9,0,3.9h-3S942.7,623.76,948.25,611.93Z"/><path class="cls-9" d="M962.58,551.51s-9.93,39.28-23.38,55.07a18.82,18.82,0,0,0,9,5.35s20.66-18.1,26.94-30.68S962.58,551.51,962.58,551.51Z"/><path class="cls-11" d="M975.86,514.13l9.87,18H970.16s-1.26-8.25-5.35-13.22Z"/><path class="cls-11" d="M960.91,492.63S956,504,955.63,510s-1.62,9.83,5.28,11,12.69-2.23,15.84-8.17c0,0,4.93-9.15,3.82-12.9S960.91,492.63,960.91,492.63Z"/><path class="cls-6" d="M974.39,508.54h-.87s3.59-7.36.44-8.66-15.65-3.84-18.35-8.27-.28-9.8,3.19-11.34a.45.45,0,0,1,.59.22l.29.54a.47.47,0,0,0,.86-.09h0a.47.47,0,0,1,.84-.13c.83,1.33,3.06,3.48,9,4.59,8.51,1.57,14.13,5,14.27,10.89a.46.46,0,0,0,.72.38c.63-.38,1.63-.56,3,.57,2.33,2,1.38,7.06-3.74,11.24a.47.47,0,0,0,0,.76c.93.6,2.31,2-1.27,4s-5.84,1.75-6.66,1.54a.46.46,0,0,1-.35-.48l.32-5.21a.48.48,0,0,0-.47-.5Z"/><path class="cls-11" d="M974.18,509.63s1.89-7.25,5.14-5.22-1.69,8.13-4.3,8.4Z"/><path class="cls-9" d="M987.92,530.76s-4.41-7.23-33.18-5.46c-15,.93-48.6-12.11-56.09-18.67,0,0-4.88,0-9.38,4.68,0,0,31.07,32.79,67.3,37,0,0,27.49,56.66,27.3,65.85,0,0,16.31,11,38.46,3.11,0,0,.67-15.75-8-37.5A244.5,244.5,0,0,0,987.92,530.76Z"/><path class="cls-8" d="M974.87,550.31a.39.39,0,0,0,0-.78c-.14,0-13.95-1.13-16.1-1.38a.39.39,0,1,0-.09.78c2.16.24,16,1.37,16.13,1.38Z"/><path class="cls-11" d="M889.84,509.72c-.26.92,3.1,2.18,4.91-1.6,0-1.78.81-9.44-.31-10.86-5.94-7.51-17.27-16.78-17.27-16.78a2.61,2.61,0,0,0-.19,3.64l5.52,5.35c-1,2-2.33,3.8-2.88,6.26a7.44,7.44,0,0,0,.94,5.46c1,1.65,2.35,3.8,3.62,5.47A7.4,7.4,0,0,0,889.84,509.72Z"/><circle class="cls-7" cx="591.55" cy="240.79" r="59.42" transform="translate(303.69 810.91) rotate(-85.36)"/><circle class="cls-7" cx="591.55" cy="240.79" r="57.45" transform="translate(3 488.82) rotate(-45)"/><path class="cls-5" d="M538.6,238.58h0a.61.61,0,0,1-.58-.64,54.33,54.33,0,0,1,.78-6.74.61.61,0,0,1,.71-.49.62.62,0,0,1,.49.71,53.68,53.68,0,0,0-.77,6.58A.6.6,0,0,1,538.6,238.58Z"/><path class="cls-5" d="M544.18,217.53a.54.54,0,0,1-.27-.07.6.6,0,0,1-.27-.81A53.74,53.74,0,0,1,601.23,188a.61.61,0,0,1,.49.71.6.6,0,0,1-.71.48,53.34,53.34,0,0,0-9.46-.85,52.19,52.19,0,0,0-46.82,28.84A.61.61,0,0,1,544.18,217.53Z"/><circle class="cls-5" cx="592.8" cy="242.04" r="48.62" transform="translate(-40.71 149.02) rotate(-13.86)"/><path class="cls-7" d="M607.06,222.81c0,8.52-6.91,17.71-15.42,17.71s-15.43-9.19-15.43-17.71,6.91-14.56,15.43-14.56S607.06,214.3,607.06,222.81Z"/><path class="cls-7" d="M572.5,273.32h37.64a9.1,9.1,0,0,0,8.68-6.34l2-6.33a9.11,9.11,0,0,0-5.5-11.33c-15.32-5.6-31.16-4.88-47.39.52a9.08,9.08,0,0,0-5.82,11l1.56,5.75A9.12,9.12,0,0,0,572.5,273.32Z"/><circle class="cls-7" cx="735.82" cy="283.75" r="37.91" transform="translate(309.19 947.03) rotate(-78.34)"/><circle class="cls-7" cx="735.82" cy="283.75" r="36.65" transform="translate(114.5 769.45) rotate(-59.1)"/><path class="cls-5" d="M702,282.34h0a.37.37,0,0,1-.36-.4,34.29,34.29,0,0,1,.49-4.3.39.39,0,0,1,.77.14,32.73,32.73,0,0,0-.49,4.2A.39.39,0,0,1,702,282.34Z"/><path class="cls-5" d="M705.6,268.91a.39.39,0,0,1-.18,0,.38.38,0,0,1-.17-.52A34.24,34.24,0,0,1,742,250.09a.39.39,0,0,1-.14.76,33.64,33.64,0,0,0-6-.54,33.3,33.3,0,0,0-29.88,18.39A.37.37,0,0,1,705.6,268.91Z"/><circle class="cls-5" cx="736.62" cy="284.55" r="31.02" transform="translate(14.54 604.21) rotate(-45)"/><path class="cls-7" d="M745.71,272.29c0,5.43-4.4,11.3-9.84,11.3s-9.84-5.87-9.84-11.3,4.41-9.29,9.84-9.29S745.71,266.85,745.71,272.29Z"/><path class="cls-7" d="M723.66,304.51h24a5.82,5.82,0,0,0,5.54-4l1.29-4A5.81,5.81,0,0,0,751,289.2c-9.77-3.58-19.88-3.12-30.24.33a5.79,5.79,0,0,0-3.71,7l1,3.67A5.82,5.82,0,0,0,723.66,304.51Z"/><circle class="cls-7" cx="447.29" cy="278.95" r="37.91" transform="translate(-66.24 397.98) rotate(-45)"/><circle class="cls-7" cx="447.29" cy="278.95" r="36.65" transform="translate(-66.24 397.98) rotate(-45)"/><path class="cls-5" d="M413.5,277.54h0a.39.39,0,0,1-.37-.4,36.28,36.28,0,0,1,.5-4.3.39.39,0,0,1,.45-.31.38.38,0,0,1,.31.45,32.72,32.72,0,0,0-.48,4.2A.39.39,0,0,1,413.5,277.54Z"/><path class="cls-5" d="M417.06,264.11a.38.38,0,0,1-.34-.56,34.24,34.24,0,0,1,36.74-18.26.39.39,0,1,1-.14.76,33.81,33.81,0,0,0-6-.54,33.32,33.32,0,0,0-29.88,18.39A.37.37,0,0,1,417.06,264.11Z"/><circle class="cls-5" cx="448.09" cy="279.75" r="31.02"/><path class="cls-7" d="M457.18,267.49c0,5.43-4.41,11.3-9.84,11.3s-9.84-5.87-9.84-11.3,4.41-9.29,9.84-9.29S457.18,262.05,457.18,267.49Z"/><path class="cls-7" d="M435.13,299.71h24a5.82,5.82,0,0,0,5.54-4l1.29-4a5.82,5.82,0,0,0-3.51-7.23c-9.78-3.57-19.88-3.12-30.24.33a5.79,5.79,0,0,0-3.71,7l1,3.67A5.8,5.8,0,0,0,435.13,299.71Z"/><circle class="cls-7" cx="475.1" cy="188.13" r="37.91" transform="translate(214.91 627.92) rotate(-80.99)"/><circle class="cls-7" cx="475.1" cy="188.13" r="36.65" transform="translate(-35.59 205.76) rotate(-23.58)"/><path class="cls-5" d="M441.31,186.72h0a.39.39,0,0,1-.37-.41,36.11,36.11,0,0,1,.5-4.29.39.39,0,1,1,.76.13,32.93,32.93,0,0,0-.48,4.2A.39.39,0,0,1,441.31,186.72Z"/><path class="cls-5" d="M444.87,173.29a.38.38,0,0,1-.17,0,.39.39,0,0,1-.17-.52,34.32,34.32,0,0,1,36.74-18.27.39.39,0,0,1,.31.45.39.39,0,0,1-.45.32,33.81,33.81,0,0,0-6-.55,33.31,33.31,0,0,0-29.88,18.4A.39.39,0,0,1,444.87,173.29Z"/><circle class="cls-5" cx="475.9" cy="188.93" r="31.02" transform="translate(214.51 629.21) rotate(-80.96)"/><path class="cls-7" d="M485,176.66c0,5.44-4.41,11.3-9.84,11.3s-9.84-5.86-9.84-11.3,4.41-9.29,9.84-9.29S485,171.23,485,176.66Z"/><path class="cls-7" d="M462.94,208.89h24a5.82,5.82,0,0,0,5.54-4l1.29-4a5.8,5.8,0,0,0-3.51-7.22c-9.78-3.58-19.88-3.12-30.24.33a5.78,5.78,0,0,0-3.71,7l1,3.67A5.81,5.81,0,0,0,462.94,208.89Z"/><circle class="cls-7" cx="708.01" cy="192.05" r="37.91" transform="translate(407.49 861.26) rotate(-80.99)"/><circle class="cls-7" cx="708.01" cy="192.05" r="36.65" transform="matrix(0.92, -0.4, 0.4, 0.92, -17.71, 299.26)"/><path class="cls-5" d="M674.22,190.64h0a.39.39,0,0,1-.37-.41,36.11,36.11,0,0,1,.5-4.29.4.4,0,0,1,.45-.32.39.39,0,0,1,.31.45,34.83,34.83,0,0,0-.48,4.2A.39.39,0,0,1,674.22,190.64Z"/><path class="cls-5" d="M677.79,177.21a.39.39,0,0,1-.18,0,.39.39,0,0,1-.17-.52A34.07,34.07,0,0,1,708,157.83a35.3,35.3,0,0,1,6.17.55.39.39,0,0,1,.31.45.38.38,0,0,1-.45.32,33.81,33.81,0,0,0-6-.55A33.31,33.31,0,0,0,678.13,177,.39.39,0,0,1,677.79,177.21Z"/><circle class="cls-5" cx="708.81" cy="192.85" r="31.02" transform="translate(71.24 557.69) rotate(-45)"/><path class="cls-7" d="M717.9,180.58c0,5.44-4.4,11.3-9.84,11.3s-9.84-5.86-9.84-11.3,4.41-9.29,9.84-9.29S717.9,175.15,717.9,180.58Z"/><path class="cls-7" d="M695.85,212.81h24a5.82,5.82,0,0,0,5.54-4.05l1.29-4a5.8,5.8,0,0,0-3.51-7.22c-9.77-3.58-19.88-3.12-30.24.33a5.78,5.78,0,0,0-3.71,7l1,3.67A5.82,5.82,0,0,0,695.85,212.81Z"/><path class="cls-9" d="M692.72,555.84H490.56C451,475.09,411.41,393.24,371.84,312.5H811.45C771.87,393.24,732.3,475.09,692.72,555.84Z"/><rect class="cls-8" x="357.76" y="302.67" width="467.58" height="18.55" rx="5.11"/><path class="cls-9" d="M678.2,651.32H505.08c-5-31.1-10-63.29-15.06-95.48H693.26C688.24,588,683.22,620.22,678.2,651.32Z"/><path class="cls-8" d="M683.49,652c0,3.51-2.28,6.41-4.83,6.41H503.3c-2.55,0-4.23-2.9-4.23-6.41v-3.91c0-3.51,1.68-6.6,4.23-6.6H678.66c2.55,0,4.83,3.09,4.83,6.6Z"/><path class="cls-2" d="M479.47,515.36a1.43,1.43,0,0,1-1.32-.86L401.08,338a1.44,1.44,0,0,1,2.63-1.15l77.07,176.52a1.43,1.43,0,0,1-.74,1.89A1.46,1.46,0,0,1,479.47,515.36Z"/><path class="cls-2" d="M508.07,630a1.43,1.43,0,0,1-1.42-1.26L499.36,570a1.44,1.44,0,0,1,2.85-.35l7.29,58.65a1.44,1.44,0,0,1-1.25,1.61Z"/><path class="cls-2" d="M454.16,231.89l-3.23-.14a1.08,1.08,0,0,1,.1-2.16h0l3.23.15a1.08,1.08,0,1,1-.1,2.15Z"/><path class="cls-2" d="M443.38,231.41l-3.23-.15a1.1,1.1,0,0,1,.1-2.19h0l3.24.16a1.09,1.09,0,0,1-.11,2.18Z"/><path class="cls-2" d="M432.61,230.93l-3.23-.14a1.11,1.11,0,0,1,.09-2.21h0l3.24.14a1.11,1.11,0,0,1-.1,2.21Z"/><path class="cls-2" d="M421.84,230.49l-3.24-.12a1.12,1.12,0,0,1,.09-2.24h0l3.23.13a1.12,1.12,0,0,1-.08,2.23Z"/><path class="cls-2" d="M411.07,230.12l-3.24-.1a1.13,1.13,0,1,1,.07-2.26h0l3.23.1a1.13,1.13,0,1,1-.06,2.26Z"/><path class="cls-2" d="M400.29,229.84l-3.23-.06a1.15,1.15,0,1,1,0-2.29h0l3.24.07a1.12,1.12,0,0,1,1.11,1.16A1.14,1.14,0,0,1,400.29,229.84Z"/><path class="cls-2" d="M389.52,229.68l-3.24,0a1.16,1.16,0,1,1,0-2.31h0l3.24,0a1.15,1.15,0,1,1,0,2.3Z"/><path class="cls-2" d="M378.75,229.67l-3.24,0a1.17,1.17,0,1,1,0-2.33h0l3.23,0a1.16,1.16,0,0,1,1.18,1.15A1.18,1.18,0,0,1,378.75,229.67Z"/><path class="cls-2" d="M368,229.82l-3.23.08a1.18,1.18,0,1,1-.06-2.36h0l3.24-.07a1.18,1.18,0,1,1,.05,2.35Z"/><path class="cls-2" d="M357.22,230.17l-3.23.14a1.19,1.19,0,1,1-.11-2.38h0l3.23-.14a1.19,1.19,0,1,1,.1,2.38Z"/><path class="cls-2" d="M346.48,230.74l-3.23.21a1.2,1.2,0,1,1-.16-2.4h0l3.23-.21a1.2,1.2,0,1,1,.16,2.4Z"/><path class="cls-2" d="M335.75,231.55l-3.22.3a1.22,1.22,0,1,1-.23-2.42h0l3.23-.3a1.21,1.21,0,1,1,.22,2.42Z"/><path class="cls-2" d="M325.05,232.65l-3.21.39a1.23,1.23,0,1,1-.3-2.44h0l3.21-.39a1.23,1.23,0,0,1,.29,2.44Z"/><path class="cls-2" d="M314.39,234.06l-3.19.49a1.25,1.25,0,0,1-1.42-1,1.24,1.24,0,0,1,1-1.42h0l3.2-.48a1.23,1.23,0,0,1,1.41,1A1.25,1.25,0,0,1,314.39,234.06Z"/><path class="cls-2" d="M303.79,235.81l-3.18.6a1.24,1.24,0,0,1-1.46-1,1.26,1.26,0,0,1,1-1.47h0l3.18-.59a1.25,1.25,0,1,1,.46,2.46Z"/><path class="cls-2" d="M293.27,237.94l-3.16.72a1.27,1.27,0,1,1-.56-2.47h0l3.15-.71a1.26,1.26,0,1,1,.57,2.46Z"/><path class="cls-2" d="M282.84,240.49l-3.12.86a1.28,1.28,0,0,1-.68-2.47h0l3.13-.85a1.27,1.27,0,0,1,.67,2.46Z"/><path class="cls-2" d="M272.54,243.5l-3.07,1a1.29,1.29,0,0,1-.81-2.45h0l3.08-1a1.29,1.29,0,0,1,.79,2.45Z"/><path class="cls-2" d="M262.41,247l-3,1.16a1.3,1.3,0,1,1-.94-2.43h0l3-1.16a1.31,1.31,0,0,1,1.68.76A1.29,1.29,0,0,1,262.41,247Z"/><path class="cls-2" d="M252.49,251l-3,1.33a1.32,1.32,0,1,1-1.08-2.4h0l2.95-1.32a1.31,1.31,0,1,1,1.08,2.39Z"/><path class="cls-2" d="M242.82,255.65l-2.86,1.5a1.33,1.33,0,1,1-1.24-2.35h0l2.87-1.5a1.33,1.33,0,1,1,1.23,2.35Z"/><path class="cls-2" d="M233.47,260.84l-2.76,1.7a1.34,1.34,0,0,1-1.4-2.29h0l2.77-1.69a1.35,1.35,0,0,1,1.84.45A1.33,1.33,0,0,1,233.47,260.84Z"/><path class="cls-2" d="M224.5,266.65l-2.64,1.88a1.35,1.35,0,1,1-1.57-2.2h0l2.64-1.88a1.35,1.35,0,0,1,1.57,2.2Z"/><path class="cls-2" d="M216,273.08l-2.49,2.06a1.36,1.36,0,1,1-1.73-2.09h0l2.49-2.06a1.36,1.36,0,0,1,1.73,2.09Z"/><path class="cls-2" d="M207.89,280.11l-2.32,2.23a1.36,1.36,0,1,1-1.89-1.95h0l2.35-2.25a1.36,1.36,0,1,1,1.88,2Z"/><path class="cls-2" d="M200.38,287.7l-2.16,2.4a1.37,1.37,0,0,1-2-1.83h0l2.17-2.4a1.36,1.36,0,1,1,2,1.83Z"/><path class="cls-2" d="M193.41,295.81l-2,2.54a1.37,1.37,0,0,1-2.15-1.69h0l2-2.55a1.37,1.37,0,0,1,2.15,1.7Z"/><path class="cls-2" d="M187,304.37,185.17,307a1.38,1.38,0,0,1-2.27-1.56h0l1.83-2.67a1.38,1.38,0,0,1,2.27,1.56Z"/><path class="cls-2" d="M181.15,313.33l-1.66,2.78a1.38,1.38,0,0,1-2.37-1.42h0l1.66-2.78a1.38,1.38,0,0,1,2.37,1.42Z"/><path class="cls-2" d="M175.86,322.63l-1.48,2.88a1.39,1.39,0,0,1-2.46-1.28h0l1.49-2.87a1.38,1.38,0,0,1,2.45,1.27Z"/><path class="cls-2" d="M171.13,332.24l-1.32,2.95a1.39,1.39,0,0,1-2.53-1.13h0l1.32-2.95a1.39,1.39,0,1,1,2.53,1.13Z"/><path class="cls-2" d="M167,342.1l-1.16,3a1.39,1.39,0,1,1-2.6-1h0l1.16-3a1.39,1.39,0,0,1,2.6,1Z"/><path class="cls-2" d="M163.32,352.18l-1,3.08a1.4,1.4,0,1,1-2.66-.86h0l1-3.08a1.39,1.39,0,1,1,2.65.86Z"/><path class="cls-2" d="M160.22,362.44l-.83,3.12a1.4,1.4,0,0,1-1.71,1,1.42,1.42,0,0,1-1-1.72h0l.84-3.12a1.4,1.4,0,1,1,2.7.72Z"/><path class="cls-2" d="M157.65,372.84,157,376a1.41,1.41,0,0,1-2.75-.59h0l.68-3.17a1.4,1.4,0,0,1,2.74.59Z"/><path class="cls-2" d="M155.6,383.36l-.52,3.2a1.41,1.41,0,0,1-2.78-.46h0l.52-3.19a1.41,1.41,0,0,1,2.78.45Z"/><path class="cls-2" d="M154.06,394l-.36,3.22a1.42,1.42,0,0,1-2.82-.32h0l.37-3.22a1.41,1.41,0,0,1,2.81.32Z"/><path class="cls-2" d="M153,404.64l-.21,3.23a1.42,1.42,0,1,1-2.83-.19h0l.21-3.23a1.42,1.42,0,0,1,2.83.19Z"/><path class="cls-2" d="M152.51,415.35l-.06,3.23a1.43,1.43,0,1,1-2.85-.05h0l.06-3.23a1.43,1.43,0,1,1,2.85.05Z"/><path class="cls-2" d="M152.49,426.07l.09,3.23a1.43,1.43,0,0,1-2.85.09h0l-.09-3.24a1.43,1.43,0,0,1,2.85-.08Z"/><path class="cls-2" d="M153,436.78l.25,3.22a1.43,1.43,0,1,1-2.86.22h0l-.24-3.22a1.43,1.43,0,1,1,2.85-.22Z"/><path class="cls-2" d="M154,447.45l.4,3.21a1.44,1.44,0,0,1-2.85.36h0l-.4-3.21a1.44,1.44,0,1,1,2.85-.36Z"/><path class="cls-2" d="M155.51,458.06l.56,3.18a1.44,1.44,0,1,1-2.83.51h0l-.56-3.18a1.44,1.44,0,1,1,2.83-.5Z"/><path class="cls-2" d="M157.56,468.57l.73,3.16a1.45,1.45,0,1,1-2.82.64h0l-.72-3.15a1.44,1.44,0,0,1,2.81-.65Z"/><path class="cls-2" d="M160.15,479l.89,3.11a1.45,1.45,0,0,1-2.78.8h0l-.89-3.11a1.45,1.45,0,1,1,2.78-.79Z"/><path class="cls-2" d="M163.29,489.2l1.06,3.06a1.45,1.45,0,1,1-2.74.95h0l-1.06-3.06a1.45,1.45,0,0,1,2.74-.95Z"/><path class="cls-2" d="M167,499.25l1.23,3a1.46,1.46,0,0,1-2.69,1.11h0l-1.23-3a1.46,1.46,0,1,1,2.69-1.11Z"/><path class="cls-2" d="M171.28,509.05,172.7,512a1.46,1.46,0,1,1-2.63,1.28h0l-1.41-2.92a1.46,1.46,0,1,1,2.63-1.27Z"/><path class="cls-2" d="M176.15,518.59l1.56,2.84a1.47,1.47,0,0,1-2.57,1.41h0L173.58,520a1.47,1.47,0,0,1,2.57-1.42Z"/><path class="cls-2" d="M181.48,527.89l1.7,2.75a1.47,1.47,0,1,1-2.5,1.55h0l-1.7-2.75a1.47,1.47,0,0,1,2.5-1.54Z"/><path class="cls-2" d="M187.26,536.91l1.83,2.67a1.47,1.47,0,0,1-2.43,1.67h0l-1.83-2.67a1.47,1.47,0,0,1,2.43-1.67Z"/><path class="cls-2" d="M193.46,545.65l2,2.58a1.48,1.48,0,1,1-2.36,1.79h0l-1.95-2.58a1.48,1.48,0,1,1,2.35-1.79Z"/><path class="cls-2" d="M200.07,554.09l2.07,2.49a1.48,1.48,0,1,1-2.28,1.9h0L197.79,556a1.48,1.48,0,0,1,2.28-1.9Z"/><path class="cls-2" d="M207.07,562.21l2.18,2.39a1.49,1.49,0,0,1-2.19,2h0l-2.19-2.39a1.49,1.49,0,0,1,2.2-2Z"/><path class="cls-2" d="M214.43,570l2.3,2.28a1.49,1.49,0,0,1-2.1,2.12h0l-2.29-2.29a1.49,1.49,0,0,1,2.1-2.11Z"/><path class="cls-2" d="M222.16,577.43l2.4,2.17a1.5,1.5,0,0,1-2,2.22h0l-2.4-2.17a1.5,1.5,0,0,1,2-2.22Z"/><path class="cls-2" d="M230.22,584.49l2.5,2.06a1.5,1.5,0,0,1-1.91,2.32h0l-2.5-2.06a1.5,1.5,0,0,1,1.91-2.32Z"/><path class="cls-2" d="M238.6,591.17l2.6,1.93a1.5,1.5,0,0,1-1.8,2.41h0l-2.6-1.94a1.5,1.5,0,0,1,1.8-2.4Z"/><path class="cls-2" d="M247.3,597.43l2.68,1.81a1.51,1.51,0,1,1-1.69,2.5h0l-2.68-1.81a1.51,1.51,0,1,1,1.69-2.5Z"/><path class="cls-2" d="M256.28,603.27l2.77,1.67a1.51,1.51,0,1,1-1.57,2.59h0l-2.76-1.68a1.51,1.51,0,1,1,1.56-2.58Z"/><path class="cls-2" d="M265.54,608.65l2.85,1.54a1.52,1.52,0,0,1-1.44,2.67h0l-2.85-1.54a1.52,1.52,0,0,1,1.44-2.67Z"/><path class="cls-2" d="M275.06,613.57,278,615a1.52,1.52,0,1,1-1.31,2.75h0l-2.92-1.4a1.52,1.52,0,1,1,1.31-2.74Z"/><path class="cls-2" d="M284.81,618l3,1.24a1.53,1.53,0,1,1-1.17,2.82h0l-3-1.24a1.53,1.53,0,0,1,1.17-2.82Z"/><path class="cls-2" d="M294.78,621.9l3.05,1.08a1.53,1.53,0,1,1-1,2.88h0l-3.05-1.08a1.53,1.53,0,0,1,1-2.88Z"/><path class="cls-2" d="M304.94,625.27l3.1.91a1.53,1.53,0,0,1-.86,2.94h0l-3.1-.91a1.53,1.53,0,1,1,.86-2.94Z"/><path class="cls-2" d="M315.26,628.08l3.16.73a1.54,1.54,0,0,1-.7,3h0l-3.16-.74a1.55,1.55,0,0,1-1.14-1.85A1.53,1.53,0,0,1,315.26,628.08Z"/><path class="cls-2" d="M325.73,630.3l3.19.56a1.54,1.54,0,0,1-.53,3h0l-3.19-.56a1.54,1.54,0,0,1,.53-3Z"/><path class="cls-2" d="M336.3,631.93l3.22.37a1.55,1.55,0,1,1-.36,3.07h0L336,635a1.54,1.54,0,1,1,.35-3.07Z"/><path class="cls-2" d="M347,632.94l3.23.18a1.55,1.55,0,1,1-.17,3.09h0l-3.23-.18a1.55,1.55,0,0,1,.17-3.09Z"/><path class="cls-2" d="M357.64,633.32l3.23,0h0a1.56,1.56,0,0,1,0,3.11h-3.25a1.55,1.55,0,1,1,0-3.1Z"/><path class="cls-2" d="M368.34,633.08l3.24-.18a1.56,1.56,0,1,1,.17,3.11h0l-3.23.18a1.56,1.56,0,0,1-.18-3.11Z"/><path class="cls-2" d="M379,632.3l3.21-.34a1.56,1.56,0,1,1,.33,3.11h0l-3.22.34a1.56,1.56,0,0,1-.32-3.11Z"/><path class="cls-2" d="M389.66,631l3.2-.49a1.57,1.57,0,0,1,.47,3.1h0l-3.2.49a1.57,1.57,0,0,1-.47-3.1Z"/><path class="cls-2" d="M400.22,629.19l3.17-.64a1.57,1.57,0,1,1,.62,3.08h0l-3.17.64a1.57,1.57,0,1,1-.62-3.08Z"/><path class="cls-2" d="M410.69,626.91l3.15-.77a1.58,1.58,0,0,1,.75,3.06h0l-3.14.77a1.58,1.58,0,1,1-.76-3.06Z"/><path class="cls-2" d="M421.07,624.19l3.1-.9a1.58,1.58,0,0,1,.89,3h0l-3.1.9a1.58,1.58,0,1,1-.88-3Z"/><path class="cls-2" d="M431.33,621.06l3.07-1a1.59,1.59,0,0,1,1,3h0l-3.08,1a1.58,1.58,0,0,1-1-3Z"/><path class="cls-2" d="M441.47,617.55l3-1.12a1.59,1.59,0,1,1,1.11,3h0l-3,1.13a1.59,1.59,0,1,1-1.1-3Z"/><path class="cls-2" d="M451.49,613.7l3-1.23a1.59,1.59,0,1,1,1.21,2.95h0l-3,1.22a1.59,1.59,0,0,1-2.07-.87A1.57,1.57,0,0,1,451.49,613.7Z"/><path class="cls-2" d="M461.38,609.52l3-1.32a1.6,1.6,0,0,1,1.3,2.92h0l-2.95,1.32a1.6,1.6,0,1,1-1.3-2.92Z"/><path class="cls-2" d="M471.15,605.05l2.92-1.39a1.6,1.6,0,1,1,1.38,2.88h0l-2.92,1.4a1.6,1.6,0,0,1-1.38-2.89Z"/><path class="cls-2" d="M480.8,600.33l2.89-1.48a1.6,1.6,0,0,1,1.45,2.86h0l-2.88,1.47a1.6,1.6,0,1,1-1.46-2.85Z"/><path class="cls-2" d="M490.34,595.36l2.85-1.54a1.61,1.61,0,0,1,1.53,2.83h0l-2.85,1.54a1.61,1.61,0,0,1-1.52-2.83Z"/><path class="cls-2" d="M499.76,590.18l2.82-1.6a1.61,1.61,0,0,1,1.59,2.81h0L501.35,593a1.61,1.61,0,0,1-1.59-2.8Z"/><path class="cls-2" d="M509.08,584.81l2.79-1.65a1.62,1.62,0,1,1,1.65,2.78h0l-2.79,1.65a1.62,1.62,0,0,1-1.65-2.78Z"/><path class="cls-2" d="M518.31,579.27l2.76-1.7a1.62,1.62,0,1,1,1.7,2.76h0L520,582a1.62,1.62,0,1,1-1.7-2.76Z"/><path class="cls-2" d="M527.45,573.58l2.73-1.74a1.62,1.62,0,1,1,1.74,2.74h0l-2.73,1.74a1.62,1.62,0,0,1-1.74-2.74Z"/><path class="cls-2" d="M536.51,567.76l2.71-1.77a1.62,1.62,0,0,1,1.77,2.72l-2.7,1.77a1.63,1.63,0,1,1-1.79-2.72Z"/><path class="cls-2" d="M545.5,561.83l2.69-1.8a1.62,1.62,0,0,1,1.8,2.69l-2.69,1.8a1.62,1.62,0,0,1-1.8-2.69Z"/><path class="cls-2" d="M554.43,555.81,557.1,554a1.61,1.61,0,1,1,1.82,2.65l-2.67,1.83a1.61,1.61,0,1,1-1.82-2.66Z"/><path class="cls-2" d="M563.32,549.71l2.66-1.84a1.6,1.6,0,1,1,1.82,2.63l-2.66,1.85a1.6,1.6,0,0,1-1.82-2.64Z"/><path class="cls-2" d="M572.19,543.57l2.65-1.84a1.59,1.59,0,1,1,1.82,2.6L574,546.19a1.6,1.6,0,0,1-1.83-2.62Z"/><path class="cls-2" d="M581,537.41l2.66-1.85a1.58,1.58,0,0,1,1.81,2.6L582.85,540a1.58,1.58,0,0,1-1.81-2.6Z"/><path class="cls-2" d="M589.9,531.25l2.65-1.85a1.57,1.57,0,0,1,1.8,2.58l-2.65,1.85a1.58,1.58,0,1,1-1.81-2.58Z"/><path class="cls-2" d="M598.77,525.1l2.66-1.84a1.57,1.57,0,1,1,1.78,2.58l-2.66,1.84a1.57,1.57,0,1,1-1.78-2.58Z"/><path class="cls-2" d="M607.67,519l2.68-1.82a1.55,1.55,0,1,1,1.75,2.57l-2.67,1.83a1.56,1.56,0,0,1-1.76-2.58Z"/><path class="cls-2" d="M616.62,512.94l2.69-1.8a1.55,1.55,0,0,1,1.72,2.57l-2.69,1.8a1.55,1.55,0,1,1-1.73-2.57Z"/><path class="cls-2" d="M625.62,507l2.7-1.77a1.54,1.54,0,1,1,1.69,2.57l-2.7,1.78a1.54,1.54,0,1,1-1.7-2.58Z"/><path class="cls-2" d="M634.68,501.08l2.73-1.74a1.54,1.54,0,0,1,2.12.47,1.52,1.52,0,0,1-.47,2.11l-2.72,1.75a1.54,1.54,0,0,1-1.66-2.59Z"/><path class="cls-2" d="M643.83,495.32l2.76-1.7a1.53,1.53,0,1,1,1.6,2.6l-2.75,1.7a1.53,1.53,0,0,1-1.61-2.6Z"/><path class="cls-2" d="M653.07,489.7l2.79-1.65a1.52,1.52,0,0,1,1.55,2.61l-2.79,1.65a1.52,1.52,0,1,1-1.55-2.61Z"/><path class="cls-2" d="M662.42,484.25l2.81-1.6a1.51,1.51,0,1,1,1.49,2.62l-2.81,1.6a1.51,1.51,0,0,1-1.5-2.62Z"/><path class="cls-2" d="M671.87,479l2.85-1.53a1.5,1.5,0,1,1,1.42,2.64l-2.85,1.54a1.5,1.5,0,0,1-1.42-2.65Z"/><path class="cls-2" d="M681.44,473.93l2.89-1.46a1.49,1.49,0,1,1,1.35,2.66l-2.88,1.46a1.49,1.49,0,0,1-1.36-2.66Z"/><path class="cls-2" d="M691.15,469.12l2.92-1.38a1.48,1.48,0,1,1,1.27,2.68l-2.92,1.39a1.49,1.49,0,0,1-1.28-2.69Z"/><path class="cls-2" d="M701,464.58l3-1.3a1.48,1.48,0,1,1,1.19,2.7l-3,1.31a1.48,1.48,0,1,1-1.19-2.71Z"/><path class="cls-2" d="M711,460.34l3-1.21a1.47,1.47,0,0,1,1.91.82,1.46,1.46,0,0,1-.81,1.9l-3,1.21a1.47,1.47,0,1,1-1.1-2.72Z"/><path class="cls-2" d="M721.05,456.42l3.05-1.11a1.46,1.46,0,0,1,1,2.75l-3,1.1a1.46,1.46,0,0,1-1-2.74Z"/><path class="cls-2" d="M731.29,452.85l3.08-1a1.44,1.44,0,0,1,1.82.93,1.45,1.45,0,0,1-.93,1.83l-3.08,1a1.45,1.45,0,1,1-.89-2.76Z"/><path class="cls-2" d="M741.65,449.66l3.12-.88a1.44,1.44,0,1,1,.78,2.78h0l-3.1.88h0a1.44,1.44,0,1,1-.78-2.78Z"/><path class="cls-2" d="M752.15,446.9l3.16-.72A1.43,1.43,0,1,1,756,449l-3.16.73a1.44,1.44,0,1,1-.64-2.8Z"/><path class="cls-2" d="M762.8,444.69l3.19-.54a1.42,1.42,0,0,1,.47,2.81l-3.19.54a1.43,1.43,0,0,1-.48-2.81Z"/><path class="cls-2" d="M773.56,443.12l3.22-.33a1.42,1.42,0,1,1,.29,2.82l-3.22.33a1.42,1.42,0,1,1-.29-2.82Z"/><path class="cls-2" d="M784.43,442.3l3.23-.09a1.41,1.41,0,1,1,.07,2.82l-3.23.09a1.41,1.41,0,0,1-.08-2.82Z"/><path class="cls-2" d="M795.33,442.34l3.24.21a1.4,1.4,0,1,1-.18,2.79l-3.23-.19a1.41,1.41,0,0,1,.17-2.81Z"/><path class="cls-2" d="M806.21,443.41l3.19.53a1.39,1.39,0,1,1-.45,2.74l-3.2-.52a1.39,1.39,0,1,1,.46-2.75Z"/><path class="cls-2" d="M816.93,445.63l3.11.9a1.38,1.38,0,0,1-.77,2.66l-3.11-.9a1.38,1.38,0,1,1,.76-2.66Z"/><path class="cls-2" d="M827.31,449.13l3,1.3a1.36,1.36,0,0,1,.71,1.81,1.38,1.38,0,0,1-1.81.71l-3-1.29a1.38,1.38,0,0,1,1.1-2.53Z"/><path class="cls-2" d="M837.15,454l2.76,1.69a1.37,1.37,0,0,1-1.43,2.34l-2.76-1.69a1.37,1.37,0,1,1,1.43-2.34Z"/><path class="cls-2" d="M846.21,460.18l2.5,2.06a1.36,1.36,0,0,1-1.73,2.1l-2.5-2.06a1.36,1.36,0,1,1,1.73-2.1Z"/><path class="cls-2" d="M854.33,467.53l2.21,2.37a1.37,1.37,0,0,1-.07,1.91,1.33,1.33,0,0,1-1.9-.07l-2.22-2.36a1.35,1.35,0,0,1,2-1.85Z"/><path class="cls-2" d="M861.43,475.87l1.89,2.62a1.32,1.32,0,0,1-2.14,1.56l-1.9-2.62a1.32,1.32,0,0,1,.29-1.86,1.34,1.34,0,0,1,1.86.29Z"/><path class="cls-2" d="M867.46,485l1.58,2.83a1.29,1.29,0,0,1-.5,1.76,1.3,1.3,0,0,1-1.77-.49l-1.59-2.82a1.31,1.31,0,1,1,2.28-1.28Z"/><path class="cls-2" d="M872.4,494.74l1.25,3a1.28,1.28,0,0,1-2.35,1l-1.26-3a1.28,1.28,0,1,1,2.36-1Z"/><path class="cls-2" d="M876.22,505l.9,3.1a1.25,1.25,0,1,1-2.4.71l-.92-3.1a1.26,1.26,0,1,1,2.42-.72Z"/><path class="cls-2" d="M878.87,515.57l.56,3.19a1.23,1.23,0,0,1-2.42.43l-.58-3.18a1.24,1.24,0,0,1,2.43-.45Z"/><path class="cls-2" d="M880.38,526.37l.24,3.23a1.2,1.2,0,1,1-2.4.18l-.25-3.22a1.21,1.21,0,1,1,2.41-.2Z"/><path class="cls-2" d="M880.83,537.26l-.06,3.23a1.19,1.19,0,0,1-1.21,1.16,1.17,1.17,0,0,1-1.15-1.2l0-3.23a1.19,1.19,0,0,1,2.38,0Z"/><path class="cls-2" d="M880.27,548.13l-.34,3.22a1.17,1.17,0,0,1-1.28,1,1.15,1.15,0,0,1-1-1.27l.33-3.22a1.16,1.16,0,1,1,2.31.24Z"/><path class="cls-2" d="M878.79,558.91l-.61,3.18a1.15,1.15,0,0,1-1.33.9,1.13,1.13,0,0,1-.9-1.32l.6-3.19a1.14,1.14,0,0,1,2.24.43Z"/><path class="cls-2" d="M876.44,569.53l-.86,3.12a1.11,1.11,0,0,1-2.14-.58l.84-3.13a1.12,1.12,0,1,1,2.16.58Z"/><path class="cls-2" d="M873.29,579.93,872.2,583a1.09,1.09,0,0,1-2.05-.73l1.08-3a1.09,1.09,0,1,1,2.06.72Z"/><circle class="cls-7" cx="833.79" cy="215.43" r="44.97" transform="translate(519.53 1017.21) rotate(-83.08)"/><circle class="cls-7" cx="833.79" cy="215.43" r="43.48" transform="translate(-5 20.36) rotate(-1.39)"/><path class="cls-5" d="M793.71,213.75h0a.46.46,0,0,1-.44-.48,41.47,41.47,0,0,1,.59-5.1.46.46,0,0,1,.91.17,39.34,39.34,0,0,0-.58,5A.46.46,0,0,1,793.71,213.75Z"/><path class="cls-5" d="M797.94,197.82a.41.41,0,0,1-.21,0,.46.46,0,0,1-.2-.61,40.65,40.65,0,0,1,43.58-21.67.46.46,0,0,1,.37.54.44.44,0,0,1-.53.36,40.82,40.82,0,0,0-7.16-.64,39.5,39.5,0,0,0-35.44,21.82A.45.45,0,0,1,797.94,197.82Z"/><circle class="cls-5" cx="834.74" cy="216.37" r="36.8" transform="translate(91.49 653.62) rotate(-45)"/><path class="cls-7" d="M845.52,201.82c0,6.45-5.22,13.41-11.67,13.41s-11.67-7-11.67-13.41,5.23-11,11.67-11S845.52,195.38,845.52,201.82Z"/><path class="cls-7" d="M819.37,240.05h28.49a6.9,6.9,0,0,0,6.57-4.8l1.53-4.79a6.88,6.88,0,0,0-4.16-8.57c-11.6-4.24-23.59-3.7-35.87.39a6.86,6.86,0,0,0-4.4,8.32l1.18,4.35A6.9,6.9,0,0,0,819.37,240.05Z"/><circle class="cls-7" cx="349.32" cy="220.9" r="44.97" transform="translate(100.75 551.1) rotate(-85.34)"/><circle class="cls-7" cx="349.32" cy="220.9" r="43.48" transform="translate(-19.12 408.18) rotate(-59.25)"/><path class="cls-5" d="M309.24,219.23h0a.46.46,0,0,1-.43-.48,41.47,41.47,0,0,1,.59-5.1.46.46,0,1,1,.9.16,39.69,39.69,0,0,0-.57,5A.47.47,0,0,1,309.24,219.23Z"/><path class="cls-5" d="M313.47,203.3a.41.41,0,0,1-.21-.05.44.44,0,0,1-.2-.61A40.65,40.65,0,0,1,356.64,181a.46.46,0,1,1-.17.9,40.62,40.62,0,0,0-7.15-.64,39.5,39.5,0,0,0-35.44,21.82A.46.46,0,0,1,313.47,203.3Z"/><circle class="cls-5" cx="350.26" cy="221.85" r="36.8" transform="translate(-54.28 312.65) rotate(-45)"/><path class="cls-7" d="M361.05,207.3c0,6.45-5.23,13.41-11.67,13.41s-11.67-7-11.67-13.41,5.22-11,11.67-11S361.05,200.86,361.05,207.3Z"/><path class="cls-7" d="M334.89,245.52h28.5a6.87,6.87,0,0,0,6.56-4.79l1.54-4.79a6.9,6.9,0,0,0-4.16-8.58c-11.6-4.23-23.59-3.69-35.87.4a6.86,6.86,0,0,0-4.4,8.32l1.18,4.35A6.88,6.88,0,0,0,334.89,245.52Z"/><path class="cls-11" d="M850.18,629.7S837.94,671.29,879,692.4l10.25-5.2s-31.86-23.58-34.61-52.42a2.72,2.72,0,0,1,1.87-2.85l9.15-5c1.49-.47,2.33-3.38,3.1-4.73l1.85-10.36Z"/><circle class="cls-8" cx="833.53" cy="576.09" r="57.09" transform="translate(170.23 1342.05) rotate(-83.76)"/><circle class="cls-9" cx="833.53" cy="576.09" r="55.19" transform="translate(55.85 1225.6) rotate(-74.52)"/><path class="cls-10" d="M788,553.77a.66.66,0,0,1-.27-.06.62.62,0,0,1-.27-.82,51.34,51.34,0,0,1,46-28.36,52.39,52.39,0,0,1,9.3.84.61.61,0,0,1,.49.71.6.6,0,0,1-.7.49,50.42,50.42,0,0,0-54.06,26.87A.6.6,0,0,1,788,553.77Z"/><circle class="cls-10" cx="834.74" cy="577.29" r="46.71" transform="translate(-163.72 759.33) rotate(-45)"/><path class="cls-9" d="M830.15,612v-5.08a41.36,41.36,0,0,1-14.26-3.09,3,3,0,0,1-1.62-3.48l1.29-4.73a3,3,0,0,1,4-1.94,34.36,34.36,0,0,0,13.17,2.77c5.1,0,8.91-1.73,8.91-5.27,0-3.2-2.95-5.11-10-7-10.12-2.77-17.38-7.18-17.38-16.09,0-8,5.88-14.18,16.09-15.82v-5.09a3,3,0,0,1,3-3h3a3,3,0,0,1,3,3v4.57a37.49,37.49,0,0,1,11.31,2,2.94,2.94,0,0,1,1.84,3.55l-1.19,4.38a3,3,0,0,1-3.9,2,30.67,30.67,0,0,0-11.08-2c-6.06,0-7.79,2.51-7.79,4.76,0,2.77,3.63,4.67,11.51,7.09,11.24,3.38,15.91,8.05,15.91,16.44,0,7.69-5.71,14.61-16.78,16.34V612a3,3,0,0,1-3,3h-3A3,3,0,0,1,830.15,612Z"/><path class="cls-11" d="M885.57,784.26s21.63,47.13,33,66.65c0,0,2.26,12.28,0,16.14l-1.92.86,9-.27s.8-16.52.18-17.44a2.28,2.28,0,0,0-1.87-.87s-3.84-30.44-15-36.94l-10.78-37.15Z"/><path class="cls-7" d="M912.79,870.22c0,.22,7,.12,10.81,0a3,3,0,0,0,2.91-2.39l2.87-15.11a2.72,2.72,0,0,0-2.06-3.16l-1.61-.36s-2.29,3.14-1.57,6.1,1.37,10.62-.46,11.51-7.06,1-7.06,1S912.91,868.28,912.79,870.22Z"/><path class="cls-7" d="M865.08,870.5a.79.79,0,0,0,.4,1.47c6.37-.06,20.65-.26,21.92-.79,1.64-.68-.59-6.57-2.95-8.56l-13,4.24Z"/><path class="cls-11" d="M861.05,781.25S875,848.85,879,862l-9.35,5.87s4.69-.8,8.16-1,6.67-4.24,6.67-4.24l-1.12-1.79s-3.5-67.23-2.65-74.86Z"/><path class="cls-11" d="M826.36,623.58s-1.93,35.16,30.09,53.13l-7.71,17.58s-29-17.51-27.92-65.25a5.65,5.65,0,0,0-1.36-3.84l-6.16-7.15a11.08,11.08,0,0,1-2.35-9.9l.81-3.24a1.68,1.68,0,0,1,2.48-1l.64.37a11.37,11.37,0,0,1,4.65,5.17l3.09,4.88c.85,1.91,5.31,3.5,7.45,4.16a.71.71,0,0,1,.28,1.18Z"/><path class="cls-9" d="M855.33,674.08c5.36,1.48,23.5,6.26,34.83,6.06l-6.95,39.25.55,6.4-22.68-.1s-6.38-14.83-11.42-22.22c-1.45-2.13-.37-4.68.46-7.13l-1.14-.75a3.09,3.09,0,0,1-1.22-3.53l5.52-16.89A1.69,1.69,0,0,1,855.33,674.08Z"/><path class="cls-6" d="M859.27,722.34l.44,3.88s-6.41,19.19,3.21,64c0,0,20.82,5.9,37.93-8.21,0,0-4.83-42.31-6.15-44.28-6.57-9.82-10.94-12-10.94-12l-.2-4.24S865.26,724.86,859.27,722.34Z"/><path class="cls-11" d="M868.14,677.24c-.08-.11,4.74-14.53,4.74-14.53l6.89.62,2.7,16.37S871.66,681.88,868.14,677.24Z"/><path class="cls-11" d="M878.12,640c-.46.29-14.73,6.19-11.67,21a2.8,2.8,0,0,0,1.59,2,24.28,24.28,0,0,0,12,2c7.48-.76,12.38-13.81,12.17-17.61S882.68,637.11,878.12,640Z"/><path class="cls-5" d="M882.51,632.46c-.48.06-10.41,3.52-5.48,10.72s6.77,11.43,4.44,14.6c-2.12,2.88-6.82,1.23-6.41,7.23a3.35,3.35,0,0,1-1.44,3c-4.43,3-15.24,12.23-4.53,25.4a3.35,3.35,0,0,1,.38,3.75c-3.14,5.63-9.73,22.11,14.13,31.26,23.58,9,32.09-6.38,34.47-12.54a3.29,3.29,0,0,1,3.25-2.08c2.59.13,6.26-.3,6.09-3.77a8.62,8.62,0,0,0-3-5.49,3.28,3.28,0,0,1,.63-5.18,6.46,6.46,0,0,0,3.18-4c1.42-5.3-1.43-21.12-16.6-23.81a3.58,3.58,0,0,1-2.78-2.68v-.06a3.29,3.29,0,0,1,1.22-3.22c2.43-1.78,5.53-5.36,3-11.1a12.46,12.46,0,0,0-9.72-7.35,3.31,3.31,0,0,1-2.71-3.95C901.75,638.17,900.81,630.06,882.51,632.46Z"/><path class="cls-6" d="M352.81,616.15s-5.6,2.72-6.63,5.84c-.82,2.51-7,2.84-7.62,7.77a5.66,5.66,0,0,1-4.73,5c-6.32,1-16.06,4.25-17.61,15.22-1.19,8.37,3.07,11.55,7.55,12.65a6.33,6.33,0,0,1,4.81,7.32c-.63,3.19.32,6.87,5.84,9.78,12.36,6.53,24.72-15.46,24.72-15.46l2.53-38.39Z"/><path class="cls-11" d="M411,595.9s-15.91,43.38-43,56.94c0,0,9,14.73,13.74,15.62,0,0,29-37.07,31.92-67.45Z"/><path class="cls-7" d="M302,856.86l-.8,6.58a2.71,2.71,0,0,1-2.38,2.38A42.17,42.17,0,0,1,290,866a2.33,2.33,0,0,1-2-3c.8-2.54,2.28-6.35,4.41-8.6h7.3A2.25,2.25,0,0,1,302,856.86Z"/><path class="cls-11" d="M359.14,779.79l1.23,7.25s-4.13,41.78-4.86,58.5a13,13,0,0,0,1.94,7.44l7.17,11.65-18.23-10.76-.36-2.22,3-4.11-3.91-46.81a14.33,14.33,0,0,1,1.64-7.94l3.77-7.08Z"/><path class="cls-7" d="M365.82,866.32H360a3.5,3.5,0,0,1-2.78-1.37c-1.81-2.35-5.57-7-7.37-7.07-2.41-.16-2.11,8.44-2.11,8.44h-1.35l-1.72-10.69A6.33,6.33,0,0,1,348,849h0s.55,4.09,3.55,5.9,12.2,8.28,12.2,8.28a8.24,8.24,0,0,1,2.37.07A1.54,1.54,0,0,1,365.82,866.32Z"/><path class="cls-11" d="M334.17,783.23s-24.17,45.85-28,56.31a100.6,100.6,0,0,0-5.24,20c-.08,1.29-1.69,2.53-6.12,2.53-2.29,0-3.4-.92-3.95-1.81a2.58,2.58,0,0,1-.1-2.5c1.4-2.83,5.83-11.87,7.48-16,2-4.89,6.18-27.08,8.49-34.8s4.93-16.08,15-23.79C321.73,783.23,328.65,776.46,334.17,783.23Z"/><path class="cls-9" d="M349.43,708.12c6.24-26.42-9.56-41.36-9.56-41.36,10-9.56,28.12-13.92,28.12-13.92s17.33,12.67,15.27,22.58c-1.2,5.81-12.17,34.81-12.17,34.81S360.94,715,349.43,708.12Z"/><path class="cls-7" d="M335.61,721.2c2.54-7.65,13.82-13.08,13.82-13.08,11.51,6.91,21.66,2.11,21.66,2.11s2.27,8.69.7,16.78-11.42,60-11.42,60c-15.53,3.14-39.41-3.17-39.41-3.17C330.85,766.31,333.07,728.84,335.61,721.2Z"/><path class="cls-11" d="M356.67,635.39l-5.07,22.76c-.49,2,1.34,1.68,3.37,1.3,3.32-.63,7.6-1.92,9-4.5a2.32,2.32,0,0,0,.26-.86l2.18-15.78a2.86,2.86,0,0,0-1.66-3l-4.21-1.86A2.83,2.83,0,0,0,356.67,635.39Z"/><path class="cls-11" d="M339.87,666.76s-35.37,25.31-4.52,51.9a8,8,0,0,0,3.49,2c1.17.35,4.62,3,6.38,4.32a1.2,1.2,0,0,0,1.75-.31h0a1.63,1.63,0,0,0,.09-1.57l-4.37-9.26a3.37,3.37,0,0,0-4.39-.19h0a1.67,1.67,0,0,1-2.53-.58c-2.38-4.85-6.89-19.14,11.54-35.28a2,2,0,0,0,.45-2.43C346.46,672.9,343.5,668,339.87,666.76Z"/><path class="cls-11" d="M362.61,613.71s6,2.54,10.09,11.21,1,12.68-2.8,13.23-9.55.46-15.61-5.14S354.81,610.71,362.61,613.71Z"/><path class="cls-6" d="M358.37,628.38s-4.53-12.69,6.72-12.84l2.64,1.85s4.13-7-2.64-10.39-14.71-.59-17.59,8.54-3.38,15.24,1.42,19.61,6.77-.59,6.77-.59-2.61-4.08-1.55-6.27,3.52.45,3.52.45Z"/><path class="cls-11" d="M357.1,629.79s-2.29-6.53-5.34-3.93,2.48,6,4.65,7.15Z"/><path class="cls-11" d="M412.55,603.8c.24.77-2.57,2-4.22-1.21-.06-1.51-1-8-.08-9.23,4.82-6.56,14.15-14.79,14.15-14.79a2.21,2.21,0,0,1,.28,3.08l-4.53,4.72c1,1.71,2.11,3.16,2.65,5.23a6.31,6.31,0,0,1-.64,4.67,54.58,54.58,0,0,1-2.9,4.75A6.26,6.26,0,0,1,412.55,603.8Z"/><path class="cls-11" d="M415,600.59l-1.08-.19c.13-.72,1.29-7.06,2.23-8.6a1.89,1.89,0,0,0,.4-1.31.77.77,0,0,0-.3-.39l-3.71,3.15-1.25,3.35-1-.38,1.34-3.61,4.52-3.83.32.17a2,2,0,0,1,1.14,1.25,2.7,2.7,0,0,1-.51,2.17C416.34,593.53,415.3,598.7,415,600.59Z"/><path class="cls-7" d="M169.51,668.13s30.1,20.59,36.6,10.69-26.42-39.67-26.42-39.67Z"/><path class="cls-7" d="M162.78,862.24a1.85,1.85,0,0,0-.05-.46c-2.27-9-13.55-14.62-13.55-14.62l-4.47.35c-2.57,7.94-2.24,12.81-1.83,15,0,.06,0,.12.05.18A106.51,106.51,0,0,0,162.78,862.24Z"/><path class="cls-11" d="M142.91,840.85l1.9,9.12a1.49,1.49,0,0,0,1.27,1.22,12.64,12.64,0,0,0,2.93,0,1.89,1.89,0,0,0,1.49-2.21l-1.32-8.09Z"/><path class="cls-7" d="M202.38,861.84a.78.78,0,0,0-.11-.2c-2.39-3.35-8.49-10-20.54-12.9l-5.78-.18s-2.57,4.47-2.62,12.76c1.32.54,3.87,1.12,8.81,1.26C189.77,862.79,198.82,862.13,202.38,861.84Z"/><path class="cls-11" d="M174.88,839.8c.06.43.86,7,1.16,9.52a1.26,1.26,0,0,0,1.06,1.13,13,13,0,0,0,4-.06,1.69,1.69,0,0,0,1.3-1.71V838.4Z"/><path class="cls-6" d="M170.24,720.31s13.94,53,13.69,119.64a2.58,2.58,0,0,1-2.05,2.52,30,30,0,0,1-6.46.74,2.38,2.38,0,0,1-2.28-2c-1.95-11.47-13.17-76-19.56-86.53,0,0-4.21,57.52-2.86,87.36a1.42,1.42,0,0,1-1.25,1.47,23.94,23.94,0,0,1-5.19,0,1.9,1.9,0,0,1-1.69-1.6c-1.39-9.71-9.4-67.45-9.06-109,0-2.34,6.2-12.54,6.2-12.54Z"/><path class="cls-7" d="M179.84,639.11c-19.18-2.78-40.25-.23-50.48,1a13.53,13.53,0,0,0-8.53,4.58c-8.65,10-27.64,37.44-5.29,65.07a41.91,41.91,0,0,0,9.69-7.08c-2.47-7-2.68-15.88,2.51-26.81a22.52,22.52,0,0,0,.66,2.57,159.33,159.33,0,0,1,7.51,45.8,1.42,1.42,0,0,0,.9,1.34c9.4,3.77,27.5,1.53,33.57.62a2,2,0,0,0,1.71-2.32c-2.14-15.48,5.12-38.12,10.89-53C185.26,665.08,181,640.75,179.84,639.11Z"/><path class="cls-11" d="M148.31,617.28l-2.64,21.9a2,2,0,0,0,1.45,2.21c2.87.84,9,2.11,14.65-.2a2.39,2.39,0,0,0,1.41-2.72l-3.35-15.41Z"/><path class="cls-11" d="M157.82,600.54c.27.22,11.73,19.88,11.73,19.88l-11.36,6.31-13.64-17S153.41,596.84,157.82,600.54Z"/><path class="cls-6" d="M149.75,609.91a1.88,1.88,0,0,0,.23,1.63l6.39,9.38a1.75,1.75,0,0,0,.34.38c.73.61,3.21,2.35,4.9-.31,1.44-2.27,2.79-4.34,4.32-5.24a1.86,1.86,0,0,1,2.56.68,69.87,69.87,0,0,1,4.53,9.23,1.85,1.85,0,0,1-1,2.34,51.38,51.38,0,0,1-11,3.91,1.88,1.88,0,0,1-1.8-.65c-1.93-2.35-7.35-8.9-9.16-10.51s-4.6-.73-5.91-.27a1.91,1.91,0,0,1-1.5-.11c-1.39-.74-3.85-2.62-1.9-6.17a1.87,1.87,0,0,0-.72-2.5c-1.56-.9-3.3-2.66-1.92-5.76a5.84,5.84,0,0,1,6.12-3.44,1.94,1.94,0,0,0,2-1.24,1.25,1.25,0,0,1,.92-.82,1.81,1.81,0,0,0,1.34-2.21,4.78,4.78,0,0,1,2.36-5.62c4.88-3.06,9.56,1.21,10.9,5s-4.15,6.76-7.67,7.41C151.51,605.46,150.24,608.39,149.75,609.91Z"/><path class="cls-11" d="M152.49,624.19s-2.62-6.43-5.47-6-5,3.39-1.22,6.4C150.46,628.32,152.49,624.19,152.49,624.19Z"/><path class="cls-6" d="M126.79,674.23c-3.79-10.37-2.42-22.89-2.4-23l1,.12c0,.12-1.36,12.41,2.35,22.54Z"/><path class="cls-7" d="M153.06,753.34a.51.51,0,0,1-.5-.39c-1.16-4.46-9.82-9.36-9.9-9.41a.51.51,0,0,1-.2-.71.52.52,0,0,1,.71-.21c.37.21,9.14,5.17,10.4,10.07a.52.52,0,0,1-.37.64Z"/><path class="cls-11" d="M125.23,702.73a41.91,41.91,0,0,1-9.69,7.08,80.12,80.12,0,0,0,17.71,15.74l.92,2.08a5.17,5.17,0,0,0,4.47,3c10.7.51,13.66-1.76,3.81-8.62C142.45,722.06,129.86,715.79,125.23,702.73Z"/><path class="cls-11" d="M214.68,651.62s-15.14,12.24-18.86,16.9-1.44,14.29,5.85,13,18.51-24.38,18.51-24.38Z"/><path class="cls-6" d="M191.39,635.36s25,24.09,31.45,28.54c7.45,5.15,17.23-5,13.83-10.67s-29-23.58-29-23.58Z"/><polygon class="cls-9" points="196.3 606.84 254.14 550.07 284.17 615.35 206.36 632.98 196.3 606.84"/><ellipse class="cls-8" cx="269.68" cy="582.69" rx="7.52" ry="36.92" transform="translate(-223.47 171.52) rotate(-25.34)"/><path class="cls-9" d="M284.92,613.54c-.91-.34-3.39-2.11-7.5-7.81a156.68,156.68,0,0,1-20.84-44c-1.81-6.78-1.61-9.82-1.29-10.74.91.34,3.39,2.11,7.49,7.8a157.31,157.31,0,0,1,20.85,44C285.43,609.57,285.24,612.62,284.92,613.54Z"/><g class="cls-12"><path class="cls-6" d="M278.7,577.88c2.69,5.67,1.81,11.72-4.24,14.58s-13.12.59-15.81-5.08,0-12.59,6.09-15.45S276,572.21,278.7,577.88Z"/></g><path class="cls-6" d="M184.48,610.73a43,43,0,0,1,13.27-5.5,76.56,76.56,0,0,0,13.36,26.88l-14.24,6.74a5.1,5.1,0,0,1-6.4-1.73c-2.84-4.16-7.28-11.3-9.23-17.81A7.56,7.56,0,0,1,184.48,610.73Z"/><path class="cls-2" d="M196.25,613.51l-11.09,5.25a1.31,1.31,0,0,1-1.85-1.35.51.51,0,0,1,.56-.43.5.5,0,0,1,.43.56.32.32,0,0,0,.12.29.3.3,0,0,0,.31,0l11.09-5.26a.3.3,0,0,0,.15-.4l-.37-.79a.32.32,0,0,0-.41-.15L184,616.56a.5.5,0,0,1-.42-.91l11.17-5.29a1.31,1.31,0,0,1,1.74.62l.37.79A1.31,1.31,0,0,1,196.25,613.51Z"/><path class="cls-2" d="M197.59,618.89l-11.09,5.25a1.3,1.3,0,0,1-1.85-1.35.5.5,0,0,1,.56-.43.51.51,0,0,1,.43.56.3.3,0,0,0,.12.29.3.3,0,0,0,.31,0L197.16,618a.32.32,0,0,0,.15-.41l-.38-.79a.3.3,0,0,0-.4-.15l-11.18,5.3a.5.5,0,1,1-.42-.9l11.17-5.3a1.3,1.3,0,0,1,1.73.62l.38.79A1.31,1.31,0,0,1,197.59,618.89Z"/><path class="cls-13" d="M205.6,600.49a.5.5,0,0,1-.55-.82l44.52-41.51a.5.5,0,0,1,.7,0,.49.49,0,0,1,0,.7L205.73,600.4A.38.38,0,0,1,205.6,600.49Z"/><path class="cls-13" d="M199.89,606.74a.49.49,0,0,1-.58-.78l2.17-2.39a.5.5,0,1,1,.74.68L200,606.63A.39.39,0,0,1,199.89,606.74Z"/><path class="cls-2" d="M201.3,624.17l-11.09,5.26a1.31,1.31,0,0,1-1.85-1.35.5.5,0,0,1,.56-.43.49.49,0,0,1,.43.56.3.3,0,0,0,.12.28.29.29,0,0,0,.31,0l11.1-5.25a.31.31,0,0,0,.14-.41l-.37-.79a.31.31,0,0,0-.41-.14l-11.17,5.29a.5.5,0,1,1-.43-.9L199.81,621a1.31,1.31,0,0,1,1.74.62l.37.79A1.3,1.3,0,0,1,201.3,624.17Z"/><path class="cls-2" d="M205.37,630.07l-11.1,5.25a1.29,1.29,0,0,1-1.32-.13,1.27,1.27,0,0,1-.52-1.22.49.49,0,1,1,1,.13.31.31,0,0,0,.44.32l11.09-5.26a.3.3,0,0,0,.15-.4l-.38-.79a.31.31,0,0,0-.41-.15l-11.17,5.3a.5.5,0,0,1-.66-.24.49.49,0,0,1,.23-.66l11.18-5.3a1.3,1.3,0,0,1,1.73.62l.38.79A1.32,1.32,0,0,1,205.37,630.07Z"/><path class="cls-2" d="M231.72,660.09a7.77,7.77,0,0,1-1.66.58,8.09,8.09,0,0,1-7.13-1.73l-18.19-15.49a.5.5,0,0,1,.65-.76l18.19,15.49a7.08,7.08,0,0,0,6.25,1.52,7,7,0,0,0,4.86-4,3.45,3.45,0,0,0,.14-.34.5.5,0,0,1,.93.38l-.16.36A7.85,7.85,0,0,1,231.72,660.09Z"/><path class="cls-2" d="M202.59,641.23a.51.51,0,0,1-.54-.07l-2-1.73a.5.5,0,0,1-.05-.7.49.49,0,0,1,.7-.06l2,1.73a.49.49,0,0,1,.06.7A.52.52,0,0,1,202.59,641.23Z"/><path class="cls-2" d="M277,578.52a.5.5,0,0,1-.65-.21c-1.48-2.63-3.39-4.22-5.65-4.71-3.93-.85-7.71,1.87-7.74,1.9a.51.51,0,0,1-.7-.11.49.49,0,0,1,.11-.69c.17-.13,4.17-3,8.53-2.07,2.56.55,4.69,2.3,6.32,5.19a.5.5,0,0,1-.19.68Z"/><path class="cls-11" d="M220.39,642s3.84-3.26,6.85,0,3.6,9,3,9.24S211,646.87,220.39,642Z"/><polygon class="cls-2" points="327.96 556.17 303.56 554.78 307 562.53 290.71 566.57 317.61 573.61 313.86 562.75 327.96 556.17"/><polygon class="cls-2" points="325.82 592.85 307.85 584.26 308.03 591.16 294.58 589.16 312.66 602.77 313.19 593.44 325.82 592.85"/><polygon class="cls-2" points="295.01 528.03 278.7 539.47 284.8 542.69 276.45 553.43 297.19 544.37 289.32 539.33 295.01 528.03"/><rect class="cls-1" width="1168" height="1034"/></g></g></svg>